<svg xmlns="http://www.w3.org/2000/svg" style="display:none">

    <symbol id="icon-spin" viewBox="0 0 100 100" preserveAspectRatio="xMidYMid" style="shape-rendering: auto; display: block; background: transparent;">
        <g><circle stroke-dasharray="164.93361431346415 56.97787143782138" r="35" stroke-width="16" stroke="#c7ddf2" fill="none" cy="50" cx="50"><animateTransform keyTimes="0;1" values="0 50 50;360 50 50" dur="1s" repeatCount="indefinite" type="rotate" attributeName="transform"></animateTransform></circle><g></g></g>
    </symbol>

    <symbol id="icon-search" viewBox="0 0 12 12">
        <path fill-rule="evenodd" clip-rule="evenodd" d="M4.8125 0.875C2.63788 0.875 0.875 2.63788 0.875 4.8125C0.875 6.98712 2.63788 8.75 4.8125 8.75C5.89993 8.75 6.88371 8.30976 7.59673 7.59673C8.30976 6.88371 8.75 5.89993 8.75 4.8125C8.75 2.63788 6.98712 0.875 4.8125 0.875ZM0 4.8125C0 2.15463 2.15463 0 4.8125 0C7.47037 0 9.625 2.15463 9.625 4.8125C9.625 5.98373 9.20615 7.05778 8.51079 7.89207L11.2469 10.6281C11.4177 10.799 11.4177 11.076 11.2469 11.2469C11.076 11.4177 10.799 11.4177 10.6281 11.2469L7.89207 8.51079C7.05778 9.20615 5.98373 9.625 4.8125 9.625C2.15463 9.625 0 7.47037 0 4.8125Z" fill="currentColor"/>
    </symbol>

    <symbol id="icon-chevron-left" viewBox="0 0 7 12">
        <path d="M5.75 10.75L0.75 5.75L5.75 0.75" stroke="currentColor" fill="none" stroke-width="1.5" stroke-linecap="round" stroke-linejoin="round"/>
    </symbol>

    <symbol id="icon-mail" viewBox="0 0 21 17">
        <path fill-rule="evenodd" clip-rule="evenodd" d="M0 3C0 1.34315 1.34315 0 3 0H18C19.6569 0 21 1.34315 21 3V13.5C21 15.1569 19.6569 16.5 18 16.5H3C1.34315 16.5 0 15.1569 0 13.5V3ZM1.5 3V3.24271C1.5 3.7636 1.77023 4.2472 2.21385 4.5202L9.71385 9.13558C10.196 9.43227 10.804 9.43227 11.2861 9.13558L18.7861 4.5202C19.2298 4.2472 19.5 3.7636 19.5 3.24271V3C19.5 2.17157 18.8284 1.5 18 1.5H3C2.17157 1.5 1.5 2.17157 1.5 3ZM19.5 5.84217L12.0723 10.4131C11.1081 11.0064 9.89193 11.0064 8.92771 10.4131L1.5 5.84217V13.5C1.5 14.3284 2.17157 15 3 15H18C18.8284 15 19.5 14.3284 19.5 13.5V5.84217Z" fill="currentColor"/>
    </symbol>

    <symbol id="icon-phone" viewBox="0 0 21 21">
        <path fill-rule="evenodd" clip-rule="evenodd" d="M0 3C0 1.34315 1.34315 0 3 0H4.37163C5.232 0 5.98197 0.585557 6.19064 1.42025L7.29644 5.84343C7.47941 6.5753 7.20594 7.34555 6.60242 7.79818L5.3088 8.7684C5.17447 8.86915 5.14527 9.01668 5.183 9.11969C6.31851 12.2195 8.78051 14.6815 11.8803 15.817C11.9833 15.8547 12.1309 15.8255 12.2316 15.6912L13.2018 14.3976C13.6545 13.7941 14.4247 13.5206 15.1566 13.7036L19.5798 14.8094C20.4144 15.018 21 15.768 21 16.6284V18C21 19.6569 19.6569 21 18 21H15.75C7.05152 21 0 13.9485 0 5.25V3ZM3 1.5C2.17157 1.5 1.5 2.17157 1.5 3V5.25C1.5 13.1201 7.87994 19.5 15.75 19.5H18C18.8284 19.5 19.5 18.8284 19.5 18V16.6284C19.5 16.4563 19.3829 16.3063 19.216 16.2646L14.7928 15.1588C14.6464 15.1222 14.4923 15.1769 14.4018 15.2976L13.4316 16.5912C12.9692 17.2078 12.1427 17.5106 11.3644 17.2255C7.85027 15.9382 5.0618 13.1497 3.77453 9.63563C3.48941 8.8573 3.79225 8.03082 4.4088 7.5684L5.70242 6.59818C5.82313 6.50766 5.87782 6.35361 5.84123 6.20723L4.73543 1.78405C4.6937 1.61711 4.5437 1.5 4.37163 1.5H3Z" fill="currentColor"/>
    </symbol>

    <symbol id="icon-user" viewBox="0 0 17 21">
        <path fill-rule="evenodd" clip-rule="evenodd" d="M8.24887 1.5C6.59201 1.5 5.24887 2.84315 5.24887 4.5C5.24887 6.15685 6.59201 7.5 8.24887 7.5C9.90572 7.5 11.2489 6.15685 11.2489 4.5C11.2489 2.84315 9.90572 1.5 8.24887 1.5ZM3.74887 4.5C3.74887 2.01472 5.76358 0 8.24887 0C10.7341 0 12.7489 2.01472 12.7489 4.5C12.7489 6.98528 10.7341 9 8.24887 9C5.76358 9 3.74887 6.98528 3.74887 4.5ZM1.52596 18.1409C3.59119 19.0158 5.86276 19.5 8.24919 19.5C10.6354 19.5 12.9067 19.0159 14.9718 18.1412C14.6641 14.6987 11.7716 12 8.24887 12C4.72624 12 1.83374 14.6985 1.52596 18.1409ZM0.000111931 18.6053C0.0774522 14.1156 3.74085 10.5 8.24887 10.5C12.757 10.5 16.4205 14.1157 16.4976 18.6056C16.5027 18.9034 16.3312 19.176 16.0605 19.3002C13.6816 20.3918 11.0354 21 8.24919 21C5.46273 21 2.8163 20.3917 0.437188 19.2999C0.166518 19.1757 -0.00501735 18.9031 0.000111931 18.6053Z" fill="currentColor"/>
    </symbol>

    <symbol id="icon-globe" viewBox="0 0 20 20">
        <path fill-rule="evenodd" clip-rule="evenodd" d="M2.8892 5.16658C3.48654 5.62694 4.13132 6.02855 4.81498 6.36284C5.05482 5.1222 5.42417 3.99668 5.8972 3.05063C6.04118 2.76266 6.19837 2.4851 6.36825 2.22262C4.95101 2.86026 3.74608 3.88656 2.8892 5.16658ZM9.75 0C6.1034 0 2.92543 2.00226 1.25379 4.96378C0.455348 6.37832 0 8.01212 0 9.75C0 10.5917 0.106821 11.4095 0.308034 12.1901C1.39146 16.3936 5.20701 19.5 9.75 19.5C14.293 19.5 18.1085 16.3936 19.192 12.1901C19.3932 11.4095 19.5 10.5917 19.5 9.75C19.5 8.01212 19.0447 6.37832 18.2462 4.96378C16.5746 2.00226 13.3966 0 9.75 0ZM9.75 1.5C8.94448 1.5 8.01332 2.1725 7.23884 3.72145C6.7979 4.60334 6.44814 5.70052 6.23423 6.93993C7.3402 7.30342 8.52197 7.5 9.75 7.5C10.978 7.5 12.1598 7.30342 13.2658 6.93993C13.0519 5.70052 12.7021 4.60334 12.2612 3.72145C11.4867 2.1725 10.5555 1.5 9.75 1.5ZM14.685 6.36284C14.4452 5.1222 14.0758 3.99668 13.6028 3.05063C13.4588 2.76266 13.3016 2.4851 13.1317 2.22262C14.549 2.86026 15.7539 3.88656 16.6108 5.16657C16.0135 5.62693 15.3687 6.02855 14.685 6.36284ZM13.4517 8.45415C12.28 8.8091 11.0372 9 9.75 9C8.46284 9 7.21996 8.8091 6.04832 8.45415C6.01657 8.87561 6 9.30832 6 9.75C6 10.9735 6.12714 12.1282 6.35185 13.1655C7.45027 13.3849 8.58653 13.5 9.75 13.5C10.9135 13.5 12.0497 13.3849 13.1481 13.1655C13.3729 12.1282 13.5 10.9735 13.5 9.75C13.5 9.30832 13.4834 8.87561 13.4517 8.45415ZM14.7527 12.7636C14.9139 11.8117 15 10.7979 15 9.75C15 9.12329 14.9692 8.50882 14.91 7.91248C15.773 7.5301 16.5856 7.05479 17.3351 6.4993C17.7629 7.49621 18 8.59472 18 9.75C18 10.3524 17.9356 10.939 17.8134 11.5035C16.8444 12.0168 15.8205 12.4406 14.7527 12.7636ZM12.6909 14.7706C11.7326 14.9216 10.7504 15 9.75 15C8.74964 15 7.76738 14.9216 6.8091 14.7706C6.93976 15.1311 7.08365 15.4682 7.23884 15.7786C8.01332 17.3275 8.94448 18 9.75 18C10.5555 18 11.4867 17.3275 12.2612 15.7786C12.4164 15.4682 12.5602 15.1311 12.6909 14.7706ZM13.1319 17.2772C13.3017 17.0148 13.4589 16.7373 13.6028 16.4494C13.9062 15.8425 14.167 15.1618 14.3783 14.4242C15.3149 14.1864 16.2235 13.8781 17.098 13.5052C16.2455 15.17 14.8436 16.507 13.1319 17.2772ZM6.36812 17.2772C6.19828 17.0148 6.04114 16.7373 5.8972 16.4494C5.59377 15.8425 5.333 15.1618 5.12171 14.4242C4.1851 14.1864 3.27652 13.8781 2.40199 13.5052C3.25454 15.17 4.6564 16.507 6.36812 17.2772ZM1.68656 11.5035C2.65563 12.0168 3.67951 12.4406 4.74729 12.7636C4.58612 11.8117 4.5 10.7979 4.5 9.75C4.5 9.12329 4.5308 8.50882 4.59003 7.91248C3.72701 7.5301 2.91437 7.05479 2.16491 6.4993C1.73705 7.49621 1.5 8.59473 1.5 9.75C1.5 10.3524 1.56444 10.939 1.68656 11.5035Z" fill="currentColor"/>
    </symbol>

    <symbol id="icon-map-pin" viewBox="0 0 17 21">
        <path fill-rule="evenodd" clip-rule="evenodd" d="M8.25 1.5C4.52208 1.5 1.5 4.52208 1.5 8.25C1.5 11.546 3.23068 14.1803 5.03654 16.0293C5.93475 16.9489 6.83509 17.6566 7.51086 18.134C7.80885 18.3445 8.06186 18.5093 8.25 18.6269C8.43814 18.5093 8.69115 18.3445 8.98914 18.134C9.66491 17.6566 10.5653 16.9489 11.4635 16.0293C13.2693 14.1803 15 11.546 15 8.25C15 4.52208 11.9779 1.5 8.25 1.5ZM8.25 19.5C7.88972 20.1578 7.88945 20.1576 7.88916 20.1575L7.88646 20.156L7.88047 20.1527L7.8605 20.1415C7.84369 20.1321 7.81995 20.1186 7.78975 20.101C7.72934 20.066 7.64303 20.015 7.5345 19.9482C7.31754 19.8146 7.01125 19.6176 6.64539 19.3591C5.91491 18.8431 4.94025 18.0774 3.96346 17.0773C2.01932 15.0868 0 12.0962 0 8.25C0 3.69365 3.69365 0 8.25 0C12.8063 0 16.5 3.69365 16.5 8.25C16.5 12.0962 14.4807 15.0868 12.5365 17.0773C11.5597 18.0774 10.5851 18.8431 9.85461 19.3591C9.48875 19.6176 9.18246 19.8146 8.9655 19.9482C8.85697 20.015 8.77066 20.066 8.71025 20.101C8.68005 20.1186 8.65631 20.1321 8.6395 20.1415L8.61953 20.1527L8.61354 20.156L8.61157 20.1571C8.61128 20.1572 8.61028 20.1578 8.25 19.5ZM8.25 19.5L8.61028 20.1578C8.38583 20.2807 8.11362 20.2804 7.88916 20.1575L8.25 19.5ZM8.25 6C7.00736 6 6 7.00736 6 8.25C6 9.49264 7.00736 10.5 8.25 10.5C9.49264 10.5 10.5 9.49264 10.5 8.25C10.5 7.00736 9.49264 6 8.25 6ZM4.5 8.25C4.5 6.17893 6.17893 4.5 8.25 4.5C10.3211 4.5 12 6.17893 12 8.25C12 10.3211 10.3211 12 8.25 12C6.17893 12 4.5 10.3211 4.5 8.25Z" fill="currentColor"/>
    </symbol>

    <symbol id="icon-check" viewBox="0 0 17 12">
        <path d="M0.700195 5.7002L5.7002 10.7002L15.7002 0.700195" stroke="currentColor" fill="none" stroke-width="1.4" stroke-linecap="round" stroke-linejoin="round"/>
    </symbol>

    <symbol id="icon-check-circle" viewBox="0 0 20 20">
        <path d="M10 1.75C14.5563 1.75 18.25 5.44365 18.25 10C18.25 14.5563 14.5563 18.25 10 18.25C5.44365 18.25 1.75 14.5563 1.75 10C1.75 5.44365 5.44365 1.75 10 1.75ZM10 3.25C6.27208 3.25 3.25 6.27208 3.25 10C3.25 13.7279 6.27208 16.75 10 16.75C13.7279 16.75 16.75 13.7279 16.75 10C16.75 6.27208 13.7279 3.25 10 3.25ZM11.8896 7.68945C12.1303 7.35249 12.5985 7.27413 12.9355 7.51465C13.2725 7.75534 13.3509 8.22351 13.1104 8.56055L9.98535 12.9355C9.85721 13.1149 9.65624 13.2289 9.43652 13.2471C9.21691 13.2652 9.00055 13.1861 8.84473 13.0303L6.96973 11.1553C6.67683 10.8624 6.67683 10.3876 6.96973 10.0947C7.26262 9.80183 7.73738 9.80183 8.03027 10.0947L9.2793 11.3438L11.8896 7.68945Z" fill="currentColor"/>
    </symbol>



    <symbol id="icon-account" viewBox="0 0 17 17">
        <path fill-rule="evenodd" clip-rule="evenodd" d="M0 2.75C0 1.23122 1.23122 0 2.75 0H4.8125C6.33128 0 7.5625 1.23122 7.5625 2.75V4.8125C7.5625 6.33128 6.33128 7.5625 4.8125 7.5625H2.75C1.23122 7.5625 0 6.33128 0 4.8125V2.75ZM2.75 1.375C1.99061 1.375 1.375 1.99061 1.375 2.75V4.8125C1.375 5.57189 1.99061 6.1875 2.75 6.1875H4.8125C5.57189 6.1875 6.1875 5.57189 6.1875 4.8125V2.75C6.1875 1.99061 5.57189 1.375 4.8125 1.375H2.75ZM8.9375 2.75C8.9375 1.23122 10.1687 0 11.6875 0H13.75C15.2688 0 16.5 1.23122 16.5 2.75V4.8125C16.5 6.33128 15.2688 7.5625 13.75 7.5625H11.6875C10.1687 7.5625 8.9375 6.33128 8.9375 4.8125V2.75ZM11.6875 1.375C10.9281 1.375 10.3125 1.99061 10.3125 2.75V4.8125C10.3125 5.57189 10.9281 6.1875 11.6875 6.1875H13.75C14.5094 6.1875 15.125 5.57189 15.125 4.8125V2.75C15.125 1.99061 14.5094 1.375 13.75 1.375H11.6875ZM0 11.6875C0 10.1687 1.23122 8.9375 2.75 8.9375H4.8125C6.33128 8.9375 7.5625 10.1687 7.5625 11.6875V13.75C7.5625 15.2688 6.33128 16.5 4.8125 16.5H2.75C1.23122 16.5 0 15.2688 0 13.75V11.6875ZM2.75 10.3125C1.99061 10.3125 1.375 10.9281 1.375 11.6875V13.75C1.375 14.5094 1.99061 15.125 2.75 15.125H4.8125C5.57189 15.125 6.1875 14.5094 6.1875 13.75V11.6875C6.1875 10.9281 5.57189 10.3125 4.8125 10.3125H2.75ZM8.9375 11.6875C8.9375 10.1687 10.1687 8.9375 11.6875 8.9375H13.75C15.2688 8.9375 16.5 10.1687 16.5 11.6875V13.75C16.5 15.2688 15.2688 16.5 13.75 16.5H11.6875C10.1687 16.5 8.9375 15.2688 8.9375 13.75V11.6875ZM11.6875 10.3125C10.9281 10.3125 10.3125 10.9281 10.3125 11.6875V13.75C10.3125 14.5094 10.9281 15.125 11.6875 15.125H13.75C14.5094 15.125 15.125 14.5094 15.125 13.75V11.6875C15.125 10.9281 14.5094 10.3125 13.75 10.3125H11.6875Z" fill="currentColor"/>
    </symbol>

    <symbol id="icon-tender" viewBox="0 0 18 17">
        <path fill-rule="evenodd" clip-rule="evenodd" d="M2.75 2.75C2.75 1.23122 3.98122 0 5.5 0H12.375C13.8938 0 15.125 1.23122 15.125 2.75V3.11811C15.9464 3.59326 16.5 4.48135 16.5 5.5V5.86811C17.3214 6.34326 17.875 7.23135 17.875 8.25V13.75C17.875 15.2688 16.6438 16.5 15.125 16.5H2.75C1.23122 16.5 0 15.2688 0 13.75V8.25C0 7.23135 0.553576 6.34326 1.375 5.86811V5.5C1.375 4.48135 1.92858 3.59326 2.75 3.11811V2.75ZM4.125 2.75H13.75C13.75 1.99061 13.1344 1.375 12.375 1.375H5.5C4.74061 1.375 4.125 1.99061 4.125 2.75ZM2.75 5.5H15.125C15.125 4.90239 14.7434 4.39215 14.2084 4.20306C14.0659 4.15271 13.9119 4.125 13.75 4.125H4.125C3.96306 4.125 3.80908 4.15271 3.66661 4.20306C3.13163 4.39215 2.75 4.90239 2.75 5.5ZM2.75 6.875C2.58806 6.875 2.43408 6.90271 2.29161 6.95306C1.75663 7.14215 1.375 7.65239 1.375 8.25V13.75C1.375 14.5094 1.99061 15.125 2.75 15.125H15.125C15.8844 15.125 16.5 14.5094 16.5 13.75V8.25C16.5 7.65239 16.1184 7.14215 15.5834 6.95306C15.4409 6.90271 15.2869 6.875 15.125 6.875H2.75Z" fill="currentColor"/>
    </symbol>

    <symbol id="icon-favorite" viewBox="0 0 19 18">
        <path fill-rule="evenodd" clip-rule="evenodd" d="M7.97093 0.741088C8.38191 -0.247029 9.78168 -0.24703 10.1927 0.741088L12.1012 5.32966L17.0549 5.7268C18.1217 5.81232 18.5542 7.14359 17.7415 7.8398L13.9672 11.0728L15.1203 15.9069C15.3686 16.9478 14.2362 17.7706 13.3229 17.2128L9.08179 14.6223L4.8407 17.2128C3.9274 17.7706 2.79496 16.9478 3.04327 15.9069L4.19636 11.0728L0.422127 7.8398C-0.390627 7.14359 0.0419241 5.81232 1.10868 5.7268L6.06243 5.32966L7.97093 0.741088ZM9.08179 1.65068L7.29168 5.95463C7.11842 6.3712 6.72667 6.65582 6.27696 6.69187L1.63048 7.06438L5.1706 10.0969C5.51324 10.3904 5.66288 10.8509 5.55819 11.2898L4.47663 15.8239L8.45466 13.3942C8.83968 13.159 9.32391 13.159 9.70893 13.3942L13.687 15.8239L12.6054 11.2898C12.5007 10.8509 12.6504 10.3904 12.993 10.0969L16.5331 7.06438L11.8866 6.69187C11.4369 6.65582 11.0452 6.3712 10.8719 5.95463L9.08179 1.65068Z" fill="currentColor"/>
    </symbol>

    <symbol id="icon-task" viewBox="0 0 17 20">
        <path d="M7.71623 2.20401C7.65693 2.39635 7.625 2.6007 7.625 2.8125C7.625 3.1922 7.9328 3.5 8.3125 3.5H12.4375C12.8172 3.5 13.125 3.1922 13.125 2.8125C13.125 2.6007 13.0931 2.39635 13.0338 2.20401M7.71623 2.20401C7.97586 1.36194 8.76022 0.75 9.6875 0.75H11.0625C11.9898 0.75 12.7741 1.36194 13.0338 2.20401M7.71623 2.20401C7.37188 2.22453 7.02859 2.24902 6.68641 2.27742C5.64958 2.36347 4.875 3.2463 4.875 4.2867V6.25M13.0338 2.20401C13.3781 2.22453 13.7214 2.24902 14.0636 2.27742C15.1004 2.36347 15.875 3.2463 15.875 4.2867V13.8125C15.875 14.9516 14.9516 15.875 13.8125 15.875H11.75M4.875 6.25H1.78125C1.21171 6.25 0.75 6.71171 0.75 7.28125V17.5938C0.75 18.1633 1.21171 18.625 1.78125 18.625H10.7188C11.2883 18.625 11.75 18.1633 11.75 17.5938V15.875M4.875 6.25H10.7188C11.2883 6.25 11.75 6.71171 11.75 7.28125V15.875M4.1875 13.125L5.5625 14.5L8.3125 11.0625" stroke="currentColor" stroke-width="1.5" stroke-linecap="round" stroke-linejoin="round" fill="none"/>
    </symbol>

    <symbol id="icon-contract" viewBox="0 0 16 20">
        <path fill-rule="evenodd" clip-rule="evenodd" d="M1.71875 1.375C1.5289 1.375 1.375 1.5289 1.375 1.71875V17.5312C1.375 17.7211 1.5289 17.875 1.71875 17.875H13.4062C13.5961 17.875 13.75 17.7211 13.75 17.5312V9.28125C13.75 7.95232 12.6727 6.875 11.3438 6.875H9.96875C9.01951 6.875 8.25 6.10549 8.25 5.15625V3.78125C8.25 2.45231 7.17269 1.375 5.84375 1.375H1.71875ZM1.71875 0C0.769511 0 0 0.76951 0 1.71875V17.5312C0 18.4805 0.76951 19.25 1.71875 19.25H13.4062C14.3555 19.25 15.125 18.4805 15.125 17.5312V8.9375C15.125 4.00146 11.1235 0 6.1875 0H1.71875ZM9.17313 1.9872C9.46138 2.52101 9.625 3.13202 9.625 3.78125V5.15625C9.625 5.3461 9.7789 5.5 9.96875 5.5H11.3438C11.993 5.5 12.604 5.66362 13.1378 5.95188C12.3739 4.17587 10.9491 2.75113 9.17313 1.9872ZM3.4375 12.375C3.4375 11.9953 3.7453 11.6875 4.125 11.6875H11C11.3797 11.6875 11.6875 11.9953 11.6875 12.375C11.6875 12.7547 11.3797 13.0625 11 13.0625H4.125C3.7453 13.0625 3.4375 12.7547 3.4375 12.375ZM3.4375 15.125C3.4375 14.7453 3.7453 14.4375 4.125 14.4375H7.5625C7.9422 14.4375 8.25 14.7453 8.25 15.125C8.25 15.5047 7.9422 15.8125 7.5625 15.8125H4.125C3.7453 15.8125 3.4375 15.5047 3.4375 15.125Z" fill="currentColor"/>
    </symbol>

    <symbol id="icon-template" viewBox="0 0 20 14">
        <path fill-rule="evenodd" clip-rule="evenodd" d="M0 1.71875C0 0.769511 0.769511 0 1.71875 0H7.21875C8.16799 0 8.9375 0.769511 8.9375 1.71875V5.15625C8.9375 6.10549 8.16799 6.875 7.21875 6.875H1.71875C0.769511 6.875 0 6.10549 0 5.15625V1.71875ZM1.71875 1.375C1.5289 1.375 1.375 1.5289 1.375 1.71875V5.15625C1.375 5.3461 1.5289 5.5 1.71875 5.5H7.21875C7.4086 5.5 7.5625 5.3461 7.5625 5.15625V1.71875C7.5625 1.5289 7.4086 1.375 7.21875 1.375H1.71875ZM11 3.09375C11 2.14451 11.7695 1.375 12.7188 1.375H17.5312C18.4805 1.375 19.25 2.14451 19.25 3.09375V10.6562C19.25 11.6055 18.4805 12.375 17.5312 12.375H12.7188C11.7695 12.375 11 11.6055 11 10.6562V3.09375ZM12.7188 2.75C12.5289 2.75 12.375 2.9039 12.375 3.09375V10.6562C12.375 10.8461 12.5289 11 12.7188 11H17.5312C17.7211 11 17.875 10.8461 17.875 10.6562V3.09375C17.875 2.9039 17.7211 2.75 17.5312 2.75H12.7188ZM1.375 9.96875C1.375 9.01951 2.14451 8.25 3.09375 8.25H7.90625C8.85549 8.25 9.625 9.01951 9.625 9.96875V12.0312C9.625 12.9805 8.85549 13.75 7.90625 13.75H3.09375C2.14451 13.75 1.375 12.9805 1.375 12.0312V9.96875ZM3.09375 9.625C2.9039 9.625 2.75 9.7789 2.75 9.96875V12.0312C2.75 12.2211 2.9039 12.375 3.09375 12.375H7.90625C8.0961 12.375 8.25 12.2211 8.25 12.0312V9.96875C8.25 9.7789 8.0961 9.625 7.90625 9.625H3.09375Z" fill="currentColor"/>
    </symbol>

    <symbol id="icon-analytics" viewBox="0 0 20 18">
        <path fill-rule="evenodd" clip-rule="evenodd" d="M0 0.6875C0 0.307804 0.307804 0 0.6875 0H18.5625C18.9422 0 19.25 0.307804 19.25 0.6875C19.25 1.0672 18.9422 1.375 18.5625 1.375H17.875V11C17.875 12.5188 16.6438 13.75 15.125 13.75H14.0164L15.0897 16.9701C15.2098 17.3303 15.0151 17.7197 14.6549 17.8397C14.2947 17.9598 13.9054 17.7651 13.7853 17.4049L13.4836 16.5H5.76636L5.46472 17.4049C5.34465 17.7651 4.9553 17.9598 4.59509 17.8397C4.23488 17.7197 4.04021 17.3303 4.16028 16.9701L5.23364 13.75H4.125C2.60622 13.75 1.375 12.5188 1.375 11V1.375H0.6875C0.307804 1.375 0 1.0672 0 0.6875ZM2.75 1.375V11C2.75 11.7594 3.36561 12.375 4.125 12.375H15.125C15.8844 12.375 16.5 11.7594 16.5 11V1.375H2.75ZM6.68302 13.75L6.22469 15.125H13.0253L12.567 13.75H6.68302ZM14.3451 4.56486C14.5352 4.89352 14.4229 5.31409 14.0942 5.50421C12.7796 6.26468 11.6481 7.30729 10.7827 8.54918C10.6664 8.71613 10.482 8.82298 10.2793 8.84094C10.0766 8.85891 9.87638 8.78616 9.73249 8.64226L8.25 7.15977L5.98614 9.42364C5.71765 9.69212 5.28235 9.69212 5.01386 9.42364C4.74538 9.15515 4.74538 8.71985 5.01386 8.45136L7.76386 5.70136C8.03235 5.43288 8.46765 5.43288 8.73614 5.70136L10.1445 7.10972C11.0474 5.98916 12.1529 5.03873 13.4058 4.314C13.7344 4.12388 14.155 4.23619 14.3451 4.56486Z" fill="currentColor"/>
    </symbol>

    <symbol id="icon-contractor" viewBox="0 0 18 18">
        <path fill-rule="evenodd" clip-rule="evenodd" d="M6.53125 1.375C5.20231 1.375 4.125 2.45231 4.125 3.78125C4.125 5.11019 5.20231 6.1875 6.53125 6.1875C7.86019 6.1875 8.9375 5.11019 8.9375 3.78125C8.9375 2.45231 7.86019 1.375 6.53125 1.375ZM2.75 3.78125C2.75 1.69292 4.44292 0 6.53125 0C8.61958 0 10.3125 1.69292 10.3125 3.78125C10.3125 5.86958 8.61958 7.5625 6.53125 7.5625C4.44292 7.5625 2.75 5.86958 2.75 3.78125ZM14.4375 4.125C14.8172 4.125 15.125 4.4328 15.125 4.8125V6.875H17.1875C17.5672 6.875 17.875 7.1828 17.875 7.5625C17.875 7.9422 17.5672 8.25 17.1875 8.25H15.125V10.3125C15.125 10.6922 14.8172 11 14.4375 11C14.0578 11 13.75 10.6922 13.75 10.3125V8.25H11.6875C11.3078 8.25 11 7.9422 11 7.5625C11 7.1828 11.3078 6.875 11.6875 6.875H13.75V4.8125C13.75 4.4328 14.0578 4.125 14.4375 4.125ZM1.38315 15.1763C2.90866 16.0198 4.66297 16.5 6.53125 16.5C8.39953 16.5 10.1538 16.0198 11.6793 15.1763C11.5278 12.4647 9.28084 10.3125 6.53125 10.3125C3.78166 10.3125 1.53474 12.4647 1.38315 15.1763ZM0 15.4688C0 11.8616 2.92414 8.9375 6.53125 8.9375C10.1384 8.9375 13.0625 11.8616 13.0625 15.4688V15.4711C13.0625 15.5076 13.0622 15.5442 13.0616 15.5805C13.0576 15.8175 12.9318 16.0357 12.7288 16.1579C10.9181 17.2481 8.79686 17.875 6.53125 17.875C4.26564 17.875 2.14435 17.2481 0.333722 16.1579C0.130683 16.0357 0.00492514 15.8175 0.000940859 15.5805C0.000316024 15.5434 0 15.5061 0 15.4688Z" fill="currentColor"/>
    </symbol>

    <symbol id="icon-criteria" viewBox="0 0 18 18">
        <path d="M1.64089 17.25H16.3076M8.97422 17.25V4.41667M8.97422 4.41667C9.98675 4.41667 10.8076 3.59586 10.8076 2.58333M8.97422 4.41667C7.9617 4.41667 7.14089 3.59586 7.14089 2.58333M10.8076 2.58333C10.8076 1.57081 9.98675 0.75 8.97422 0.75C7.9617 0.75 7.14089 1.57081 7.14089 2.58333M10.8076 2.58333H16.3076M7.14089 2.58333H1.64089M3.47423 13.5833C4.86072 13.5833 6.00756 12.8119 6.19683 11.522C6.20882 11.4403 6.21482 11.3994 6.21013 11.3087C6.20689 11.2461 6.18568 11.1318 6.16626 11.0722C6.13814 10.9858 6.10405 10.9252 6.03587 10.804L3.47423 6.25L0.912581 10.804C0.849374 10.9164 0.817771 10.9726 0.788539 11.0702C0.770555 11.1302 0.749743 11.2743 0.750002 11.337C0.750423 11.4389 0.756591 11.4657 0.768925 11.5195C1.00264 12.5383 2.12496 13.5833 3.47423 13.5833ZM14.4742 13.5833C15.8607 13.5833 17.0076 12.8119 17.1968 11.522C17.2088 11.4403 17.2148 11.3994 17.2101 11.3087C17.2069 11.2461 17.1857 11.1318 17.1663 11.0722C17.1381 10.9858 17.104 10.9252 17.0359 10.804L14.4742 6.25L11.9126 10.804C11.8494 10.9164 11.8178 10.9726 11.7885 11.0702C11.7706 11.1302 11.7497 11.2743 11.75 11.337C11.7504 11.4389 11.7566 11.4657 11.7689 11.5195C12.0026 12.5383 13.125 13.5833 14.4742 13.5833Z" stroke="currentColor" fill="none" stroke-width="1.5" stroke-linecap="round" stroke-linejoin="round"/>
    </symbol>

    <symbol id="icon-approval" viewBox="0 0 18 19">
        <path fill-rule="evenodd" clip-rule="evenodd" d="M8.46476 0.188328C8.7299 -0.0627759 9.1451 -0.0627759 9.41024 0.188328C11.2589 1.93913 13.7534 3.01194 16.5 3.01194C16.5437 3.01194 16.5873 3.01167 16.6309 3.01113C16.931 3.0074 17.1988 3.19875 17.2925 3.48384C17.6707 4.63404 17.875 5.86234 17.875 7.13698C17.875 12.5838 14.1496 17.1588 9.10887 18.4562C8.99645 18.4852 8.87855 18.4852 8.76614 18.4562C3.72539 17.1588 0 12.5838 0 7.13698C0 5.86234 0.2043 4.63404 0.582464 3.48384C0.676197 3.19875 0.944023 3.0074 1.24411 3.01113C1.28767 3.01167 1.3313 3.01194 1.375 3.01194C4.12156 3.01194 6.61606 1.93913 8.46476 0.188328ZM1.74716 4.38112C1.50471 5.25768 1.375 6.18169 1.375 7.13698C1.375 11.8793 4.57673 15.8756 8.9375 17.0789C13.2983 15.8756 16.5 11.8793 16.5 7.13698C16.5 6.18169 16.3703 5.25768 16.1278 4.38112C13.3894 4.2954 10.8875 3.26705 8.9375 1.61074C6.98753 3.26705 4.48562 4.2954 1.74716 4.38112ZM12.0871 6.57748C12.3961 6.79818 12.4676 7.22756 12.2469 7.53653L8.80944 12.349C8.69198 12.5135 8.50811 12.6179 8.30671 12.6346C8.1053 12.6513 7.90676 12.5785 7.76386 12.4356L5.70136 10.3731C5.43288 10.1046 5.43288 9.66928 5.70136 9.40079C5.96985 9.1323 6.40515 9.1323 6.67364 9.40079L8.16227 10.8894L11.1281 6.73732C11.3488 6.42835 11.7781 6.35679 12.0871 6.57748Z" fill="currentColor"/>
    </symbol>

    <symbol id="icon-rights" viewBox="0 0 17 21">
        <path fill-rule="evenodd" clip-rule="evenodd" d="M7.55418 0.0172337C7.35186 0.053803 7.15502 0.116027 6.96843 0.2024C6.49543 0.440734 6.07835 0.897234 5.90602 1.36748L5.8501 1.52148L5.6246 1.45273C5.30743 1.35648 4.75927 1.3519 4.44302 1.44265C4.09244 1.54222 3.77283 1.72907 3.51409 1.98573C3.25534 2.24238 3.06592 2.56047 2.96352 2.91023C2.91402 3.07798 2.9021 3.20632 2.8911 3.6784L2.87735 4.24398L2.69493 4.1899C2.41902 4.1074 1.8461 4.10923 1.55552 4.19265C1.20497 4.2929 0.885376 4.47993 0.626289 4.73646C0.367202 4.99298 0.176996 5.3107 0.0732679 5.66023L0.0109345 5.8619L0.00176786 9.89065C-0.00373214 12.6223 0.00360119 14.0377 0.0237679 14.2879C0.131148 15.6426 0.636994 16.9353 1.4776 18.0031C1.71043 18.3038 2.3081 18.9015 2.60877 19.1343C3.66545 19.9647 4.94119 20.4693 6.28002 20.5863C6.70535 20.623 8.82927 20.6239 9.21885 20.5872C10.3127 20.484 11.3518 20.0606 12.2063 19.3699C12.4739 19.1536 14.3467 17.2808 14.563 17.0131C15.1176 16.3238 15.5374 15.4356 15.696 14.6142C15.7877 14.1412 15.8088 13.7819 15.8088 12.7213V11.7157L15.9591 11.5269C16.2369 11.1777 16.3744 10.8174 16.4037 10.3582C16.434 9.93085 16.3339 9.50442 16.1165 9.1353C15.8991 8.76618 15.5747 8.47178 15.1864 8.29107C14.9013 8.15723 14.6409 8.10315 14.2789 8.10315C13.8132 8.10315 13.4465 8.21315 13.0844 8.45973L12.9231 8.56973L12.9149 5.84082L12.9066 3.1119L12.8443 2.91023C12.7405 2.5607 12.5503 2.24298 12.2912 1.98646C12.0322 1.72993 11.7126 1.5429 11.362 1.44265C11.0458 1.3519 10.4976 1.35648 10.1804 1.45273L9.95494 1.52148L9.89902 1.36748C9.6781 0.765234 9.11802 0.250984 8.48919 0.0722337C8.26277 0.00806702 7.76318 -0.0212663 7.55418 0.0172337ZM8.16835 1.41973C8.26608 1.45973 8.35489 1.51873 8.42964 1.59331C8.50438 1.6679 8.56357 1.75659 8.60377 1.85423C8.65785 1.99723 8.65877 2.07332 8.65877 5.85823C8.65877 10.1987 8.64227 9.86957 8.8696 10.0969C8.99727 10.2226 9.16724 10.2961 9.34627 10.3032C9.62218 10.3032 9.9146 10.0887 9.9916 9.82923C10.0283 9.7064 10.0338 9.2774 10.0338 6.53198C10.0338 3.4474 10.0347 3.37223 10.0888 3.22923C10.1463 3.08899 10.2431 2.96832 10.3674 2.88166C10.4918 2.79501 10.6385 2.74605 10.79 2.74065C10.9415 2.74605 11.0882 2.79501 11.2126 2.88166C11.337 2.96832 11.4337 3.08899 11.4913 3.22923C11.5454 3.37315 11.5463 3.45015 11.5463 7.89507V12.4161L11.4299 12.4344C10.8698 12.5233 10.2107 12.7736 9.70468 13.0898C9.3041 13.3392 8.83018 13.7416 8.72385 13.9231C8.65451 14.0494 8.62625 14.1941 8.64301 14.3372C8.65976 14.4803 8.7207 14.6146 8.81735 14.7215C8.9686 14.8773 9.10518 14.9351 9.31877 14.9351C9.53693 14.9351 9.65335 14.8828 9.86602 14.6912C10.1951 14.3924 10.416 14.2421 10.7772 14.0743C11.2154 13.8699 11.5573 13.7837 12.0944 13.7443C12.3612 13.7242 12.4556 13.7058 12.5583 13.6527C12.7153 13.5648 12.8344 13.4222 12.8929 13.2521C12.9094 13.1916 12.9213 12.8029 12.9213 12.307C12.9213 11.6736 12.9314 11.405 12.9634 11.2226C13.0537 10.6724 13.3062 10.1617 13.6885 9.7559C13.8902 9.5469 14.0488 9.47082 14.2871 9.47082C14.39 9.47 14.4919 9.49056 14.5864 9.53121C14.6809 9.57186 14.7659 9.6317 14.8361 9.70694C14.9062 9.78218 14.96 9.87118 14.9939 9.96829C15.0279 10.0654 15.0413 10.1685 15.0333 10.2711C15.0195 10.459 14.9599 10.5901 14.8151 10.7551C14.6446 10.9476 14.5236 11.1712 14.4769 11.3766C14.442 11.5306 14.4338 11.7689 14.4338 12.6764C14.4338 13.8424 14.4182 14.0716 14.3082 14.5116C14.1703 15.0738 13.9161 15.6009 13.562 16.0589C13.4117 16.2569 11.8735 17.8189 11.4959 18.1581C10.8612 18.736 10.0633 19.1036 9.21152 19.2104C8.91085 19.2498 6.65402 19.2498 6.29927 19.2113C5.24056 19.0935 4.23718 18.6771 3.40627 18.0105C3.08627 17.7362 2.79061 17.4347 2.5226 17.1094C1.90151 16.2964 1.51363 15.3295 1.4006 14.3127C1.38135 14.1376 1.37127 12.6828 1.37127 10.085C1.37127 6.19923 1.37218 6.12223 1.42627 5.97923C1.48374 5.83913 1.58036 5.71855 1.70455 5.63191C1.82875 5.54526 1.97527 5.49622 2.1266 5.49065C2.27861 5.49586 2.42588 5.54493 2.55063 5.63194C2.67538 5.71896 2.77229 5.84021 2.82968 5.98107C2.88193 6.11857 2.88377 6.19923 2.88377 8.26357C2.88377 10.6808 2.87368 10.5644 3.0946 10.7844C3.22227 10.9101 3.39224 10.9836 3.57127 10.9907C3.84718 10.9907 4.1396 10.7762 4.2166 10.5167C4.25327 10.3939 4.25877 9.92915 4.25877 6.87573C4.25877 3.44832 4.25968 3.37223 4.31377 3.22923C4.37125 3.08913 4.46786 2.96855 4.59205 2.88191C4.71625 2.79526 4.86277 2.74622 5.0141 2.74065C5.20935 2.74065 5.41835 2.83415 5.55768 2.98357C5.78135 3.2219 5.76668 3.03398 5.80885 6.23315C5.8501 9.35532 5.83818 9.17198 6.01968 9.37823C6.15993 9.53865 6.3011 9.60007 6.52752 9.60007C6.67143 9.60007 6.74843 9.5854 6.83185 9.5414C6.98218 9.46165 7.13527 9.28748 7.17743 9.14723C7.20402 9.0574 7.20493 8.47807 7.17835 6.32023C7.16289 5.14817 7.15189 3.97605 7.14535 2.8039C7.14627 2.06965 7.15085 1.98715 7.20127 1.85423C7.27272 1.66902 7.41438 1.51948 7.59546 1.43813C7.77655 1.35677 7.98242 1.35016 8.16835 1.41973Z" fill="currentColor"/>
    </symbol>

    <symbol id="icon-cash" viewBox="0 0 20 16">
        <path fill-rule="evenodd" clip-rule="evenodd" d="M0 2.75C0 1.23122 1.23122 0 2.75 0H16.5C18.0188 0 19.25 1.23122 19.25 2.75V12.375C19.25 13.8938 18.0188 15.125 16.5 15.125H2.75C1.23122 15.125 0 13.8938 0 12.375V2.75ZM1.375 5.5V12.375C1.375 13.1344 1.99061 13.75 2.75 13.75H16.5C17.2594 13.75 17.875 13.1344 17.875 12.375V5.5H1.375ZM17.875 3.4375H1.375V2.75C1.375 1.99061 1.99061 1.375 2.75 1.375H16.5C17.2594 1.375 17.875 1.99061 17.875 2.75V3.4375ZM2.75 9.625C2.75 9.2453 3.0578 8.9375 3.4375 8.9375H8.9375C9.3172 8.9375 9.625 9.2453 9.625 9.625C9.625 10.0047 9.3172 10.3125 8.9375 10.3125H3.4375C3.0578 10.3125 2.75 10.0047 2.75 9.625ZM2.75 11.6875C2.75 11.3078 3.0578 11 3.4375 11H6.1875C6.5672 11 6.875 11.3078 6.875 11.6875C6.875 12.0672 6.5672 12.375 6.1875 12.375H3.4375C3.0578 12.375 2.75 12.0672 2.75 11.6875Z" fill="currentColor"/>
    </symbol>

    <symbol id="icon-edit" viewBox="0 0 17 17">
        <path d="M9.5 3.25H2.625C1.58947 3.25 0.75 4.08947 0.75 5.125V13.875C0.75 14.9105 1.58947 15.75 2.625 15.75H11.375C12.4105 15.75 13.25 14.9105 13.25 13.875V7M4.5 12L13.25 3.25M14.5 2L15.75 0.75" stroke="currentColor" stroke-width="1.5" stroke-linecap="round" stroke-linejoin="round" fill="none"/>
    </symbol>

    <symbol id="icon-trash" viewBox="0 0 15 18">
        <path fill-rule="evenodd" clip-rule="evenodd" d="M7.5001 1.25C7.04373 1.25 6.58908 1.2573 6.13626 1.27178C5.50742 1.2919 5.0001 1.81994 5.0001 2.48182V2.57569C5.82707 2.52547 6.66065 2.5 7.5001 2.5C8.33955 2.5 9.17313 2.52547 10.0001 2.57569V2.48182C10.0001 1.81994 9.49279 1.2919 8.86394 1.27178C8.41113 1.2573 7.95648 1.25 7.5001 1.25ZM11.2501 2.67081V2.48182C11.2501 1.1781 10.2397 0.0651521 8.90391 0.0224226C8.43778 0.00751158 7.96981 0 7.5001 0C7.0304 0 6.56242 0.00751158 6.0963 0.0224225C4.76054 0.0651521 3.7501 1.1781 3.7501 2.48182V2.67081C2.9545 2.74364 2.16548 2.83942 1.38373 2.95748C1.09429 3.00119 0.805842 3.04796 0.518426 3.09775C0.178313 3.15666 -0.0496421 3.48014 0.00927335 3.82025C0.0681888 4.16036 0.391665 4.38832 0.731778 4.3294C0.789782 4.31936 0.84783 4.30944 0.905921 4.29964L1.74377 15.1917C1.84397 16.4942 2.93007 17.5 4.23641 17.5H10.7638C12.0701 17.5 13.1562 16.4942 13.2564 15.1917L14.0943 4.29964C14.1524 4.30944 14.2104 4.31936 14.2684 4.3294C14.6085 4.38832 14.932 4.16036 14.9909 3.82025C15.0498 3.48014 14.8219 3.15666 14.4818 3.09775C14.1944 3.04796 13.9059 3.00119 13.6165 2.95748C12.8347 2.83942 12.0457 2.74364 11.2501 2.67081ZM12.8551 4.11101C12.1023 4.00866 11.3427 3.92759 10.5769 3.86841C9.56175 3.78996 8.53566 3.75 7.5001 3.75C6.46455 3.75 5.43845 3.78996 4.42326 3.86841C3.65748 3.92759 2.89789 4.00866 2.1451 4.11101L2.99009 15.0959C3.04019 15.7471 3.58324 16.25 4.23641 16.25H10.7638C11.417 16.25 11.96 15.7471 12.0101 15.0959L12.8551 4.11101ZM5.19243 5.62546C5.53735 5.6122 5.82772 5.88106 5.84099 6.22598L6.12945 13.726C6.14271 14.0709 5.87385 14.3613 5.52893 14.3745C5.18401 14.3878 4.89364 14.1189 4.88037 13.774L4.59191 6.27402C4.57864 5.9291 4.8475 5.63873 5.19243 5.62546ZM9.80778 5.62546C10.1527 5.63873 10.4216 5.9291 10.4083 6.27402L10.1198 13.774C10.1066 14.1189 9.8162 14.3878 9.47127 14.3745C9.12635 14.3613 8.85749 14.0709 8.87076 13.726L9.15922 6.22598C9.17248 5.88106 9.46285 5.6122 9.80778 5.62546Z" fill="currentColor"/>
    </symbol>

    <symbol id="icon-office" viewBox="0 0 28 26">
        <path d="M17.75 0C18.1642 0 18.5 0.335786 18.5 0.75C18.5 1.16421 18.1642 1.5 17.75 1.5H17.5V6H25.75C26.1642 6 26.5 6.33579 26.5 6.75C26.5 7.16421 26.1642 7.5 25.75 7.5H25.5V24H26.75C27.1642 24 27.5 24.3358 27.5 24.75C27.5 25.1642 27.1642 25.5 26.75 25.5H0.75C0.335786 25.5 0 25.1642 0 24.75C0 24.3358 0.335786 24 0.75 24H2V1.5H1.75C1.33579 1.5 1 1.16421 1 0.75C1 0.335786 1.33579 0 1.75 0H17.75ZM3.5 24H6V20.25C6 19.0074 7.00736 18 8.25 18H11.25C12.4926 18 13.5 19.0074 13.5 20.25V24H16V1.5H3.5V24ZM8.25 19.5C7.83579 19.5 7.5 19.8358 7.5 20.25V24H12V20.25C12 19.8358 11.6642 19.5 11.25 19.5H8.25ZM17.5 24H24V7.5H17.5V24ZM20.7598 19C21.174 19 21.5098 19.3358 21.5098 19.75V19.7598C21.5098 20.174 21.174 20.5098 20.7598 20.5098H20.75C20.3358 20.5098 20 20.174 20 19.7598V19.75C20 19.3358 20.3358 19 20.75 19H20.7598ZM20.7598 15C21.174 15 21.5098 15.3358 21.5098 15.75V15.7598C21.5098 16.174 21.174 16.5098 20.7598 16.5098H20.75C20.3358 16.5098 20 16.174 20 15.7598V15.75C20 15.3358 20.3358 15 20.75 15H20.7598ZM7.75 13C8.16421 13 8.5 13.3358 8.5 13.75C8.5 14.1642 8.16421 14.5 7.75 14.5H6.75C6.33579 14.5 6 14.1642 6 13.75C6 13.3358 6.33579 13 6.75 13H7.75ZM12.75 13C13.1642 13 13.5 13.3358 13.5 13.75C13.5 14.1642 13.1642 14.5 12.75 14.5H11.75C11.3358 14.5 11 14.1642 11 13.75C11 13.3358 11.3358 13 11.75 13H12.75ZM20.7598 11C21.174 11 21.5098 11.3358 21.5098 11.75V11.7598C21.5098 12.174 21.174 12.5098 20.7598 12.5098H20.75C20.3358 12.5098 20 12.174 20 11.7598V11.75C20 11.3358 20.3358 11 20.75 11H20.7598ZM7.75 9C8.16421 9 8.5 9.33579 8.5 9.75C8.5 10.1642 8.16421 10.5 7.75 10.5H6.75C6.33579 10.5 6 10.1642 6 9.75C6 9.33579 6.33579 9 6.75 9H7.75ZM12.75 9C13.1642 9 13.5 9.33579 13.5 9.75C13.5 10.1642 13.1642 10.5 12.75 10.5H11.75C11.3358 10.5 11 10.1642 11 9.75C11 9.33579 11.3358 9 11.75 9H12.75ZM7.75 5C8.16421 5 8.5 5.33579 8.5 5.75C8.5 6.16421 8.16421 6.5 7.75 6.5H6.75C6.33579 6.5 6 6.16421 6 5.75C6 5.33579 6.33579 5 6.75 5H7.75ZM12.75 5C13.1642 5 13.5 5.33579 13.5 5.75C13.5 6.16421 13.1642 6.5 12.75 6.5H11.75C11.3358 6.5 11 6.16421 11 5.75C11 5.33579 11.3358 5 11.75 5H12.75Z" fill="currentColor"/>
    </symbol>

    <symbol id="icon-message" viewBox="0 0 17 16">
        <path d="M8.25 0C12.7436 0 16.5 3.35373 16.5 7.625C16.5 11.8963 12.7436 15.25 8.25 15.25C7.56401 15.25 6.8967 15.1718 6.25781 15.0254C5.38234 15.5637 4.35173 15.875 3.25 15.875C3.05976 15.875 2.87137 15.8658 2.68555 15.8477C2.53273 15.8328 2.38095 15.8119 2.23145 15.7852C1.96744 15.7379 1.74807 15.5531 1.65723 15.3008C1.56641 15.0484 1.61761 14.7662 1.79102 14.5615C2.145 14.1437 2.38232 13.6284 2.46484 13.0615C0.953118 11.6871 0 9.76524 0 7.625C0 3.35373 3.75642 0 8.25 0ZM8.25 1.5C4.45931 1.5 1.5 4.30235 1.5 7.625C1.5 9.4135 2.34619 11.0369 3.72363 12.168C3.90357 12.3157 4.0054 12.5388 3.99805 12.7715C3.98008 13.3304 3.85829 13.8638 3.6543 14.3535C4.40766 14.2825 5.1028 14.0176 5.68945 13.6055L5.76074 13.5615C5.92975 13.4689 6.12931 13.4442 6.31738 13.4951C6.92853 13.6606 7.57704 13.75 8.25 13.75C12.0407 13.75 15 10.9476 15 7.625C15 4.30235 12.0407 1.5 8.25 1.5Z" fill="currentColor"/>
    </symbol>

    <symbol id="icon-notify" viewBox="0 0 16 17">
        <path d="M7.67708 0C10.8524 0.000323594 13.4271 2.57456 13.4271 5.75C13.4271 5.76563 13.4262 5.78126 13.4261 5.79688V6.375C13.4261 8.11219 14.0814 9.69493 15.1595 10.8916C15.3259 11.0764 15.39 11.3318 15.3304 11.5732C15.2708 11.8144 15.0956 12.0105 14.8626 12.0967C13.602 12.562 12.2831 12.9062 10.9212 13.1201C10.9229 13.1633 10.9271 13.2065 10.9271 13.25C10.9271 15.0447 9.47173 16.4997 7.67708 16.5C5.88215 16.5 4.42708 15.0449 4.42708 13.25C4.42708 13.2065 4.43026 13.1633 4.43196 13.1201C3.07 12.9062 1.75127 12.5621 0.490553 12.0967C0.257308 12.0105 0.0814529 11.8146 0.021803 11.5732C-0.0377487 11.3319 0.0264688 11.0764 0.192701 10.8916C1.20329 9.76982 1.84325 8.30869 1.91926 6.69922L1.9261 6.375L1.92708 5.75C1.92708 2.57436 4.50144 0 7.67708 0ZM9.42415 13.3008C8.84779 13.3489 8.26458 13.375 7.6761 13.375C7.08784 13.375 6.50517 13.3488 5.92903 13.3008C5.95593 14.2438 6.72758 15 7.67708 15C8.6263 14.9997 9.39726 14.2436 9.42415 13.3008ZM7.67708 1.5C5.32987 1.5 3.42708 3.40279 3.42708 5.75L3.4261 6.375C3.4261 8.09793 2.89699 9.69817 1.99348 11.0215C3.08533 11.3584 4.21853 11.602 5.38411 11.7402C6.13534 11.8293 6.90031 11.875 7.6761 11.875C8.45211 11.875 9.21764 11.8294 9.96907 11.7402C11.134 11.602 12.2665 11.3581 13.3577 11.0215C12.4545 9.6983 11.9261 8.09763 11.9261 6.375V5.78516C11.9262 5.77352 11.9271 5.76167 11.9271 5.75C11.9271 3.40299 10.024 1.50032 7.67708 1.5Z" fill="currentColor"/>
    </symbol>

    <symbol id="icon-help" viewBox="0 0 17 17">
        <path fill-rule="evenodd" clip-rule="evenodd" d="M5.16515 1.91752L7.29097 4.4685C7.83953 4.34383 8.41047 4.34383 8.95903 4.4685L11.0849 1.91752C9.21813 1.02749 7.03187 1.02749 5.16515 1.91752ZM12.1717 2.56582L10.163 4.97634C10.3805 5.11738 10.5864 5.2831 10.7766 5.47335C10.9669 5.66359 11.1326 5.86952 11.2737 6.08703L13.6842 4.07827C13.4764 3.79362 13.2438 3.5211 12.9864 3.26364C12.7289 3.00618 12.4564 2.77362 12.1717 2.56582ZM14.3325 5.16515L11.7815 7.29097C11.9062 7.83953 11.9062 8.41047 11.7815 8.95903L14.3325 11.0849C15.2225 9.21813 15.2225 7.03187 14.3325 5.16515ZM13.6842 12.1717L11.2737 10.163C11.1326 10.3805 10.9669 10.5864 10.7766 10.7766C10.5864 10.9669 10.3805 11.1326 10.163 11.2737L12.1717 13.6842C12.4564 13.4764 12.7289 13.2438 12.9864 12.9864C13.2438 12.7289 13.4764 12.4564 13.6842 12.1717ZM11.0849 14.3325L8.95903 11.7815C8.41047 11.9062 7.83953 11.9062 7.29097 11.7815L5.16515 14.3325C7.03187 15.2225 9.21813 15.2225 11.0849 14.3325ZM4.07827 13.6842L6.08703 11.2737C5.86952 11.1326 5.66359 10.9669 5.47335 10.7766C5.2831 10.5864 5.11738 10.3805 4.97634 10.163L2.56582 12.1717C2.77362 12.4564 3.00618 12.7289 3.26364 12.9864C3.5211 13.2438 3.79362 13.4764 4.07827 13.6842ZM1.91752 11.0849L4.4685 8.95903C4.34383 8.41047 4.34383 7.83953 4.4685 7.29097L1.91752 5.16515C1.02749 7.03187 1.02749 9.21813 1.91752 11.0849ZM2.56582 4.07827L4.97634 6.08703C5.11738 5.86952 5.2831 5.66359 5.47335 5.47335C5.66359 5.2831 5.86952 5.11738 6.08703 4.97634L4.07827 2.56582C3.79361 2.77362 3.5211 3.00618 3.26364 3.26364C3.00618 3.5211 2.77362 3.79361 2.56582 4.07827ZM3.8704 1.201C6.47192 -0.400333 9.77807 -0.400333 12.3796 1.201C12.9104 1.52771 13.4113 1.92077 13.8702 2.37976C14.3292 2.83874 14.7223 3.33963 15.049 3.8704C16.6503 6.47192 16.6503 9.77808 15.049 12.3796C14.7223 12.9104 14.3292 13.4113 13.8702 13.8702C13.4113 14.3292 12.9104 14.7223 12.3796 15.049C9.77807 16.6503 6.47192 16.6503 3.8704 15.049C3.33963 14.7223 2.83874 14.3292 2.37976 13.8702C1.92077 13.4113 1.52771 12.9104 1.201 12.3796C-0.400333 9.77807 -0.400333 6.47192 1.201 3.8704C1.52771 3.33963 1.92077 2.83874 2.37976 2.37976C2.83874 1.92077 3.33963 1.52771 3.8704 1.201ZM8.96788 5.77059C8.42417 5.57647 7.82583 5.57647 7.28212 5.77059C6.9452 5.89089 6.62853 6.08594 6.35723 6.35723C6.08594 6.62853 5.89089 6.9452 5.77059 7.28212C5.57647 7.82583 5.57647 8.42417 5.77059 8.96787C5.89089 9.3048 6.08594 9.62147 6.35723 9.89277C6.62853 10.1641 6.9452 10.3591 7.28212 10.4794C7.82583 10.6735 8.42417 10.6735 8.96788 10.4794C9.3048 10.3591 9.62147 10.1641 9.89277 9.89277C10.1641 9.62147 10.3591 9.3048 10.4794 8.96787C10.6735 8.42417 10.6735 7.82583 10.4794 7.28212C10.3591 6.9452 10.1641 6.62853 9.89277 6.35723C9.62147 6.08594 9.3048 5.89089 8.96788 5.77059Z" fill="currentColor"/>
    </symbol>

    <symbol id="icon-search" viewBox="0 0 17 17">
        <path fill-rule="evenodd" clip-rule="evenodd" d="M6.875 1.25C3.7684 1.25 1.25 3.7684 1.25 6.875C1.25 9.9816 3.7684 12.5 6.875 12.5C8.42847 12.5 9.83387 11.8711 10.8525 10.8525C11.8711 9.83387 12.5 8.42847 12.5 6.875C12.5 3.7684 9.9816 1.25 6.875 1.25ZM0 6.875C0 3.07804 3.07804 0 6.875 0C10.672 0 13.75 3.07804 13.75 6.875C13.75 8.54819 13.1516 10.0825 12.1583 11.2744L16.0669 15.1831C16.311 15.4271 16.311 15.8229 16.0669 16.0669C15.8229 16.311 15.4271 16.311 15.1831 16.0669L11.2744 12.1583C10.0825 13.1516 8.54819 13.75 6.875 13.75C3.07804 13.75 0 10.672 0 6.875Z" fill="currentColor"/>
    </symbol>

    <symbol id="icon-arrow-down" viewBox="0 0 12 7">
        <path d="M10.75 0.75L5.75 5.75L0.75 0.75" stroke="currentColor" fill="none" stroke-width="1.5" stroke-linecap="round" stroke-linejoin="round"/>
    </symbol>

    <symbol id="icon-arrow-down-tray" viewBox="0 0 17 17">
        <path fill-rule="evenodd" clip-rule="evenodd" d="M8.125 0C8.47018 0 8.75 0.279822 8.75 0.625V10.3661L11.4331 7.68306C11.6771 7.43898 12.0729 7.43898 12.3169 7.68306C12.561 7.92714 12.561 8.32286 12.3169 8.56694L8.56694 12.3169C8.32286 12.561 7.92714 12.561 7.68306 12.3169L3.93306 8.56694C3.68898 8.32286 3.68898 7.92714 3.93306 7.68306C4.17714 7.43898 4.57286 7.43898 4.81694 7.68306L7.5 10.3661V0.625C7.5 0.279822 7.77982 0 8.125 0ZM0.625 11.25C0.970178 11.25 1.25 11.5298 1.25 11.875V13.75C1.25 14.4404 1.80964 15 2.5 15H13.75C14.4404 15 15 14.4404 15 13.75V11.875C15 11.5298 15.2798 11.25 15.625 11.25C15.9702 11.25 16.25 11.5298 16.25 11.875V13.75C16.25 15.1307 15.1307 16.25 13.75 16.25H2.5C1.11929 16.25 0 15.1307 0 13.75V11.875C0 11.5298 0.279822 11.25 0.625 11.25Z" fill="currentColor"/>
    </symbol>

    <symbol id="icon-paper-clip" viewBox="0 0 14 15">
        <path fill-rule="evenodd" clip-rule="evenodd" d="M4.30966 1.50125C5.30097 0.540001 6.64539 0 8.04733 0C9.44927 0 10.7938 0.540024 11.7851 1.50127C12.7764 2.46252 13.3333 3.76625 13.3333 5.12566C13.3333 6.48504 12.7765 7.78875 11.7852 8.75002L6.44553 13.9277C5.73742 14.6144 4.77706 15 3.77571 15C2.77433 15 1.81396 14.6143 1.10588 13.9277C0.397797 13.2411 0 12.3098 0 11.3388C0 10.3678 0.397777 9.43663 1.10586 8.75002L6.44553 3.57233C6.87042 3.16032 7.44659 2.92899 8.04736 2.92899C8.64819 2.92899 9.22441 3.16043 9.64926 3.57239C10.0741 3.98436 10.3128 4.5431 10.3128 5.1257C10.3128 5.70826 10.0742 6.26695 9.64933 6.67894L4.30966 11.8566L3.24173 10.8211L8.58139 5.6434C8.72298 5.50612 8.8025 5.31995 8.8025 5.1257C8.8025 4.9315 8.72294 4.74525 8.58133 4.60793C8.43971 4.47061 8.24764 4.39347 8.04736 4.39347C7.84703 4.39347 7.65504 4.47058 7.51346 4.60786L2.17379 9.78556C1.74894 10.1975 1.51029 10.7562 1.51029 11.3388C1.51029 11.9214 1.74896 12.4802 2.17381 12.8921C2.59866 13.3041 3.17489 13.5355 3.77571 13.5355C4.37658 13.5355 4.95277 13.3041 5.37759 12.8922L10.7173 7.71448C11.4253 7.0279 11.823 6.0967 11.823 5.12566C11.823 4.15465 11.4253 3.22342 10.7172 2.53681C10.0091 1.85021 9.04871 1.46447 8.04733 1.46447C7.04596 1.46447 6.08568 1.85018 5.37759 2.53679L1.10586 6.67894L0.037926 5.6434L4.30966 1.50125Z" fill="currentColor"/>
    </symbol>

    <symbol id="icon-pencil" viewBox="0 0 18 18">
        <path fill-rule="evenodd" clip-rule="evenodd" d="M15.9754 1.52459C15.6093 1.15847 15.0157 1.15847 14.6496 1.52459L13.6853 2.48889L15.0111 3.81472L15.9754 2.85041C16.3415 2.4843 16.3415 1.8907 15.9754 1.52459ZM14.1272 4.6986L12.8014 3.37278L2.67573 13.4985C2.30859 13.8656 2.03871 14.3184 1.89049 14.816L1.55384 15.9462L2.684 15.6095C3.1816 15.4613 3.63442 15.1914 4.00156 14.8243L14.1272 4.6986ZM13.7657 0.640704C14.62 -0.213568 16.005 -0.213568 16.8593 0.640704C17.7136 1.49498 17.7136 2.88002 16.8593 3.7343L4.88544 15.7082C4.37145 16.2222 3.7375 16.6 3.04085 16.8075L0.803444 17.474C0.583504 17.5395 0.345348 17.4792 0.183074 17.3169C0.0207992 17.1547 -0.0394901 16.9165 0.0260265 16.6966L0.69251 14.4592C0.900027 13.7625 1.27785 13.1286 1.79184 12.6146L13.7657 0.640704Z" fill="currentColor"/>
    </symbol>

    <symbol id="icon-x-mark" viewBox="0 0 12 12">
        <path fill-rule="evenodd" clip-rule="evenodd" d="M0.183058 0.183058C0.427136 -0.0610194 0.822864 -0.0610194 1.06694 0.183058L5.625 4.74112L10.1831 0.183059C10.4271 -0.0610188 10.8229 -0.0610188 11.0669 0.183059C11.311 0.427137 11.311 0.822865 11.0669 1.06694L6.50888 5.625L11.0669 10.1831C11.311 10.4271 11.311 10.8229 11.0669 11.0669C10.8229 11.311 10.4271 11.311 10.1831 11.0669L5.625 6.50888L1.06694 11.0669C0.822864 11.311 0.427136 11.311 0.183058 11.0669C-0.0610194 10.8229 -0.0610194 10.4271 0.183058 10.1831L4.74112 5.625L0.183058 1.06694C-0.0610194 0.822864 -0.0610194 0.427136 0.183058 0.183058Z" fill="currentColor"/>
    </symbol>

    <symbol id="icon-arrow-rounded-square" viewBox="0 0 19 14">
        <path fill-rule="evenodd" clip-rule="evenodd" d="M6.27666 0.116416C7.29944 0.0392659 8.3327 0 9.375 0C10.4173 0 11.4506 0.0392659 12.4733 0.116416C14.4349 0.264378 15.9856 1.8151 16.1336 3.77666C16.174 4.31252 16.204 4.85126 16.2235 5.39266L17.6831 3.93306C17.9271 3.68898 18.3229 3.68898 18.5669 3.93306C18.811 4.17714 18.811 4.57286 18.5669 4.81694L16.0669 7.31694C15.8229 7.56102 15.4271 7.56102 15.1831 7.31694L12.6831 4.81694C12.439 4.57286 12.439 4.17714 12.6831 3.93306C12.9271 3.68898 13.3229 3.68898 13.5669 3.93306L14.9705 5.33663C14.9516 4.84559 14.9238 4.35689 14.8871 3.87068C14.7856 2.52531 13.7247 1.46436 12.3793 1.36287C11.3878 1.28808 10.3859 1.25 9.375 1.25C8.3641 1.25 7.36221 1.28808 6.37068 1.36287C5.02531 1.46436 3.96435 2.52531 3.86287 3.87068C3.84925 4.05127 3.83685 4.2322 3.82567 4.41347C3.80442 4.758 3.5079 5.02006 3.16338 4.99881C2.81886 4.97757 2.55679 4.68105 2.57804 4.33653C2.58957 4.14956 2.60236 3.96294 2.61641 3.77666C2.76438 1.8151 4.3151 0.264378 6.27666 0.116416ZM2.68306 6.43306C2.92714 6.18898 3.32286 6.18898 3.56694 6.43306L6.06694 8.93306C6.31102 9.17714 6.31102 9.57286 6.06694 9.81694C5.82286 10.061 5.42714 10.061 5.18306 9.81694L3.77949 8.41337C3.79835 8.90441 3.8262 9.39311 3.86287 9.87932C3.96435 11.2247 5.02532 12.2856 6.37068 12.3871C7.36221 12.4619 8.3641 12.5 9.375 12.5C10.3859 12.5 11.3878 12.4619 12.3793 12.3871C13.7247 12.2856 14.7856 11.2247 14.8871 9.87932C14.9007 9.69873 14.9132 9.5178 14.9243 9.33653C14.9456 8.99201 15.2421 8.72994 15.5866 8.75118C15.9311 8.77243 16.1932 9.06895 16.172 9.41347C16.1604 9.60043 16.1476 9.78706 16.1336 9.97334C15.9856 11.9349 14.4349 13.4856 12.4733 13.6336C11.4506 13.7107 10.4173 13.75 9.375 13.75C8.3327 13.75 7.29944 13.7107 6.27666 13.6336C4.3151 13.4856 2.76438 11.9349 2.61641 9.97334C2.57599 9.43748 2.54597 8.89874 2.52655 8.35733L1.06694 9.81694C0.822864 10.061 0.427136 10.061 0.183058 9.81694C-0.0610194 9.57286 -0.0610194 9.17714 0.183058 8.93306L2.68306 6.43306Z" fill="currentColor"/>
    </symbol>

    <symbol id="icon-eye" viewBox="0 0 18 14">
        <path fill-rule="evenodd" clip-rule="evenodd" d="M8.9726 1.25C5.38307 1.25 2.33567 3.57811 1.26111 6.80846C1.24628 6.85303 1.2463 6.90148 1.26115 6.94604C2.33705 10.1741 5.38328 12.5 8.97114 12.5C12.5607 12.5 15.6081 10.1719 16.6826 6.94154C16.6975 6.89697 16.6974 6.84852 16.6826 6.80396C15.6067 3.57594 12.5605 1.25 8.9726 1.25ZM0.0750104 6.41391C1.31439 2.68809 4.82876 0 8.9726 0C13.1145 0 16.6275 2.6856 17.8685 6.40871C17.9687 6.7096 17.9688 7.03515 17.8687 7.33609C16.6294 11.0619 13.115 13.75 8.97114 13.75C4.82923 13.75 1.3162 11.0644 0.0752835 7.34129C-0.0250012 7.04041 -0.0250966 6.71486 0.0750104 6.41391ZM8.97192 5C7.93639 5 7.09692 5.83947 7.09692 6.875C7.09692 7.91053 7.93639 8.75 8.97192 8.75C10.0075 8.75 10.8469 7.91053 10.8469 6.875C10.8469 5.83947 10.0075 5 8.97192 5ZM5.84692 6.875C5.84692 5.14911 7.24603 3.75 8.97192 3.75C10.6978 3.75 12.0969 5.14911 12.0969 6.875C12.0969 8.60089 10.6978 10 8.97192 10C7.24603 10 5.84692 8.60089 5.84692 6.875Z" fill="currentColor"/>
    </symbol>

    <symbol id="icon-document-text" viewBox="0 0 17 21">
        <path fill-rule="evenodd" clip-rule="evenodd" d="M1.875 1.5C1.66789 1.5 1.5 1.66789 1.5 1.875V19.125C1.5 19.3321 1.66789 19.5 1.875 19.5H14.625C14.8321 19.5 15 19.3321 15 19.125V10.125C15 8.67525 13.8247 7.5 12.375 7.5H10.875C9.83947 7.5 9 6.66053 9 5.625V4.125C9 2.67525 7.82475 1.5 6.375 1.5H1.875ZM1.875 0C0.839466 0 0 0.839465 0 1.875V19.125C0 20.1605 0.839466 21 1.875 21H14.625C15.6605 21 16.5 20.1605 16.5 19.125V9.75C16.5 4.36522 12.1348 0 6.75 0H1.875ZM10.007 2.16785C10.3215 2.75019 10.5 3.41675 10.5 4.125V5.625C10.5 5.83211 10.6679 6 10.875 6H12.375C13.0832 6 13.7498 6.1785 14.3322 6.49296C13.4988 4.55549 11.9445 3.00123 10.007 2.16785ZM3.75 13.5C3.75 13.0858 4.08579 12.75 4.5 12.75H12C12.4142 12.75 12.75 13.0858 12.75 13.5C12.75 13.9142 12.4142 14.25 12 14.25H4.5C4.08579 14.25 3.75 13.9142 3.75 13.5ZM3.75 16.5C3.75 16.0858 4.08579 15.75 4.5 15.75H8.25C8.66421 15.75 9 16.0858 9 16.5C9 16.9142 8.66421 17.25 8.25 17.25H4.5C4.08579 17.25 3.75 16.9142 3.75 16.5Z" fill="currentColor"/>
    </symbol>


    <svg id="icon-settings" viewBox="0 0 13 13">
        <path fill-rule="evenodd" clip-rule="evenodd" d="M4.13152 1.0445C4.23198 0.441767 4.75346 0 5.36451 0H7.09382C7.70487 0 8.22636 0.441766 8.32681 1.0445L8.46915 1.89853C8.48176 1.97419 8.53781 2.06208 8.64749 2.12279C8.70245 2.15321 8.75676 2.18463 8.81042 2.21703C8.91771 2.28182 9.02191 2.2865 9.09383 2.25955L9.90508 1.95563C10.4773 1.74126 11.1206 1.972 11.4261 2.50118L12.2908 3.99881C12.5963 4.52799 12.4745 5.2005 12.0027 5.58886L11.3332 6.14007C11.2739 6.18886 11.226 6.28115 11.2283 6.40576C11.2289 6.43711 11.2292 6.46852 11.2292 6.5C11.2292 6.53147 11.2289 6.56288 11.2283 6.59423C11.226 6.71884 11.2739 6.81113 11.3332 6.85992L12.0027 7.41113C12.4745 7.79949 12.5963 8.472 12.2908 9.00118L11.4261 10.4988C11.1206 11.028 10.4773 11.2587 9.90508 11.0444L9.09384 10.7404C9.02192 10.7135 8.91772 10.7182 8.81043 10.783C8.75677 10.8154 8.70245 10.8468 8.64749 10.8772C8.53782 10.9379 8.48176 11.0258 8.46915 11.1015L8.32681 11.9555C8.22636 12.5582 7.70487 13 7.09382 13H5.36451C4.75346 13 4.23197 12.5582 4.13152 11.9555L3.98918 11.1015C3.97657 11.0258 3.92052 10.9379 3.81084 10.8772C3.75589 10.8468 3.70157 10.8154 3.64792 10.783C3.54062 10.7182 3.43642 10.7135 3.3645 10.7404L2.55325 11.0444C1.98104 11.2587 1.33772 11.028 1.03219 10.4988L0.167538 9.00119C-0.137987 8.47201 -0.0161494 7.7995 0.455606 7.41114L0.773392 7.79716L0.455606 7.41114L1.12517 6.85993C1.18444 6.81114 1.23235 6.71885 1.23004 6.59424C1.22946 6.56289 1.22917 6.53148 1.22917 6.5C1.22917 6.46853 1.22946 6.43712 1.23004 6.40577C1.23235 6.28116 1.18444 6.18887 1.12517 6.14008L0.455606 5.58887C-0.01615 5.20051 -0.137987 4.528 0.167538 3.99882L1.03219 2.50119C1.33772 1.97201 1.98104 1.74127 2.55325 1.95564L3.36449 2.25956C3.43641 2.2865 3.54061 2.28182 3.64791 2.21703C3.70156 2.18463 3.75588 2.15321 3.81084 2.12279C3.92052 2.06208 3.97657 1.97419 3.98918 1.89853L4.13152 1.0445ZM5.36451 1C5.2423 1 5.138 1.08835 5.11791 1.2089L4.97557 2.06293C4.90506 2.486 4.62782 2.81354 4.29514 2.99769C4.25119 3.02202 4.20774 3.04715 4.16482 3.07307C3.83873 3.26998 3.41582 3.34666 3.01366 3.196L2.20243 2.89208C2.08799 2.84921 1.95932 2.89536 1.89822 3.00119L1.03356 4.49882C0.972458 4.60466 0.996825 4.73916 1.09118 4.81683L1.76074 5.36804C2.09149 5.64032 2.23691 6.04382 2.22987 6.42429C2.2294 6.44946 2.22917 6.4747 2.22917 6.5C2.22917 6.5253 2.2294 6.55054 2.22987 6.57572C2.23691 6.95619 2.09149 7.35969 1.76074 7.63197L1.09118 8.18318L0.869615 7.91405L1.09118 8.18318C0.996826 8.26085 0.972458 8.39536 1.03356 8.50119L1.89822 9.99882C1.95932 10.1047 2.08799 10.1508 2.20243 10.1079L3.01368 9.80401C3.41583 9.65335 3.83874 9.73003 4.16483 9.92693C4.20775 9.95285 4.25119 9.97798 4.29514 10.0023C4.62782 10.1865 4.90506 10.514 4.97557 10.9371L5.11791 11.7911C5.138 11.9116 5.2423 12 5.36451 12H7.09382C7.21603 12 7.32033 11.9116 7.34042 11.7911L7.48276 10.9371C7.55327 10.514 7.83051 10.1865 8.16319 10.0023C8.20714 9.97798 8.25059 9.95285 8.29351 9.92693C8.6196 9.73002 9.04251 9.65334 9.44467 9.804L10.2559 10.1079C10.3703 10.1508 10.499 10.1046 10.5601 9.99881L11.4248 8.50118C11.4859 8.39535 11.4615 8.26085 11.3672 8.18317L10.6976 7.63196C10.3668 7.35968 10.2214 6.95618 10.2285 6.57571C10.2289 6.55054 10.2292 6.5253 10.2292 6.5C10.2292 6.4747 10.2289 6.44946 10.2285 6.42428C10.2214 6.04381 10.3668 5.64031 10.6976 5.36803L11.3672 4.81682C11.4615 4.73915 11.4859 4.60464 11.4248 4.49881L10.5601 3.00118C10.499 2.89535 10.3703 2.8492 10.2559 2.89207L9.44466 3.19599C9.0425 3.34665 8.61959 3.26997 8.2935 3.07307C8.25058 3.04715 8.20714 3.02202 8.16319 2.99769C7.83051 2.81354 7.55327 2.486 7.48276 2.06293L7.34042 1.2089C7.32033 1.08835 7.21603 1 7.09382 1H5.36451ZM6.22901 4.99995C5.40059 4.99995 4.72901 5.67152 4.72901 6.49995C4.72901 7.32837 5.40059 7.99995 6.22901 7.99995C7.05744 7.99995 7.72901 7.32837 7.72901 6.49995C7.72901 5.67152 7.05744 4.99995 6.22901 4.99995ZM3.72901 6.49995C3.72901 5.11924 4.8483 3.99995 6.22901 3.99995C7.60972 3.99995 8.72901 5.11924 8.72901 6.49995C8.72901 7.88066 7.60972 8.99995 6.22901 8.99995C4.8483 8.99995 3.72901 7.88066 3.72901 6.49995Z" fill="currentColor"/>
    </svg>

    <svg id="icon-link" viewBox="0 0 13 13">
        <path d="M7.5 2.5H2C1.17157 2.5 0.5 3.17157 0.5 4V11C0.5 11.8284 1.17157 12.5 2 12.5H9C9.82843 12.5 10.5 11.8284 10.5 11V5.5M3.5 9.5L12.5 0.5M12.5 0.5L9 0.5M12.5 0.5V4" stroke="currentColor" fill="none" stroke-linecap="round" stroke-linejoin="round"/>
    </svg>

    <svg id="icon-exit" viewBox="0 0 12 13">
        <path fill-rule="evenodd" clip-rule="evenodd" d="M2 1C1.44772 1 1 1.44772 1 2L1 11C1 11.5523 1.44772 12 2 12H6C6.55228 12 7 11.5523 7 11V8.5C7 8.22386 7.22386 8 7.5 8C7.77614 8 8 8.22386 8 8.5V11C8 12.1046 7.10457 13 6 13H2C0.895431 13 -3.97364e-08 12.1046 0 11L3.97364e-07 2C4.37101e-07 0.89543 0.895431 -3.97364e-08 2 0L6 1.58946e-07C7.10457 2.38419e-07 8 0.895431 8 2V4.5C8 4.77614 7.77614 5 7.5 5C7.22386 5 7 4.77614 7 4.5V2C7 1.44772 6.55228 1 6 1L2 1ZM5.35355 4.14645C5.54882 4.34171 5.54882 4.65829 5.35355 4.85355L4.20711 6L11.5 6C11.7761 6 12 6.22386 12 6.5C12 6.77614 11.7761 7 11.5 7L4.20711 7L5.35355 8.14645C5.54882 8.34171 5.54882 8.65829 5.35355 8.85355C5.15829 9.04882 4.84171 9.04882 4.64645 8.85355L2.64645 6.85355C2.45118 6.65829 2.45119 6.34171 2.64645 6.14645L4.64645 4.14645C4.84171 3.95119 5.15829 3.95119 5.35355 4.14645Z" fill="currentColor"/>
    </svg>

    <svg id="icon-cart" viewBox="0 0 14 13">
        <path fill-rule="evenodd" clip-rule="evenodd" d="M0 0.5C0 0.223858 0.223858 0 0.5 0H1.42379C1.9901 0 2.48567 0.380725 2.63159 0.92792L2.78579 1.50617C3.02337 1.50206 3.26145 1.5 3.5 1.5C6.96908 1.5 10.337 1.93628 13.5515 2.75722C13.6862 2.79162 13.8005 2.88055 13.867 3.00266C13.9335 3.12478 13.9461 3.26905 13.9018 3.40084C13.3455 5.05735 12.6851 6.66602 11.9283 8.21903C11.8445 8.39093 11.6701 8.5 11.4788 8.5H4C3.34689 8.5 2.79127 8.9174 2.58535 9.5H12.5C12.7761 9.5 13 9.72386 13 10C13 10.2761 12.7761 10.5 12.5 10.5H2C1.72386 10.5 1.5 10.2761 1.5 10C1.5 8.83672 2.29452 7.85901 3.37051 7.57992L1.92081 2.14356L1.92081 2.14356L1.66535 1.18558L1.66535 1.18558C1.63617 1.07615 1.53706 1 1.42379 1H0.5C0.223858 1 0 0.776142 0 0.5ZM3.05147 2.50249L4.38414 7.5H11.1649C11.7693 6.23424 12.3084 4.9313 12.7776 3.59553C9.80255 2.87945 6.69591 2.5 3.5 2.5C3.35029 2.5 3.20078 2.50083 3.05147 2.50249ZM1.5 12C1.5 11.4477 1.94772 11 2.5 11C3.05228 11 3.5 11.4477 3.5 12C3.5 12.5523 3.05228 13 2.5 13C1.94772 13 1.5 12.5523 1.5 12ZM10 12C10 11.4477 10.4477 11 11 11C11.5523 11 12 11.4477 12 12C12 12.5523 11.5523 13 11 13C10.4477 13 10 12.5523 10 12Z" fill="currentColor"/>
    </svg>

    <svg id="icon-chevron-up-down" viewBox="0 0 6 9">
        <path d="M0.5 6.1875L2.6875 8.375L4.875 6.1875M0.5 2.6875L2.6875 0.5L4.875 2.6875" stroke="currentColor" fill="none" stroke-linecap="round" stroke-linejoin="round"/>
    </svg>

    <svg id="icon-thunder" viewBox="0 0 12 14">
        <path d="M7.13479 0.158741C7.29152 -0.00918783 7.54246 -0.0485292 7.74318 0.0630375C7.944 0.174996 8.04293 0.409579 7.98244 0.631397L6.65432 5.49956H11.5C11.699 5.49956 11.8796 5.61791 11.959 5.80034C12.0382 5.98289 12.001 6.19488 11.8653 6.34038L4.86525 13.8404C4.7084 14.0083 4.45759 14.0479 4.25686 13.9361C4.05631 13.824 3.95714 13.5894 4.0176 13.3677L5.34572 8.49956H0.50002C0.301106 8.49938 0.120324 8.38124 0.0410359 8.19878C-0.0380001 8.01637 -0.000797318 7.80416 0.134786 7.65874L7.13479 0.158741ZM1.65041 7.49956H6.00002C6.15569 7.49956 6.30288 7.57225 6.39748 7.69585C6.49207 7.81969 6.52344 7.98106 6.48244 8.1314L5.51369 11.6802L10.3496 6.49956H6.00002C5.84439 6.49942 5.69706 6.42694 5.60256 6.30327C5.50816 6.17947 5.47663 6.01794 5.5176 5.86772L6.48537 2.31792L1.65041 7.49956Z" fill="currentColor"/>
    </svg>

    <svg id="icon-play" viewBox="0 0 13 13">
        <path fill-rule="evenodd" clip-rule="evenodd" d="M6.5 1C3.46243 1 1 3.46243 1 6.5C1 9.53757 3.46243 12 6.5 12C9.53757 12 12 9.53757 12 6.5C12 3.46243 9.53757 1 6.5 1ZM0 6.5C0 2.91015 2.91015 0 6.5 0C10.0899 0 13 2.91015 13 6.5C13 10.0899 10.0899 13 6.5 13C2.91015 13 0 10.0899 0 6.5ZM5.5 4.84976V8.15024L8.47044 6.5L5.5 4.84976ZM4.5 4.42488C4.5 3.85301 5.11433 3.49154 5.61423 3.76926L9.34945 5.84438C9.8638 6.13013 9.86381 6.86986 9.34945 7.15562L5.61423 9.23074C5.11433 9.50846 4.5 9.14699 4.5 8.57512V4.42488Z" fill="currentColor"/>
    </svg>

    <svg id="icon-headset" viewBox="0 0 13 12">
        <path d="M12.5 6.5H10.5C10.2348 6.5 9.98043 6.60536 9.79289 6.79289C9.60536 6.98043 9.5 7.23478 9.5 7.5V10C9.5 10.2652 9.60536 10.5196 9.79289 10.7071C9.98043 10.8946 10.2348 11 10.5 11H12.5V6.5ZM12.5 6.5C12.5 5.71207 12.3448 4.93185 12.0433 4.2039C11.7417 3.47595 11.2998 2.81451 10.7426 2.25736C10.1855 1.70021 9.52405 1.25825 8.7961 0.956723C8.06815 0.655195 7.28793 0.5 6.5 0.5C5.71207 0.5 4.93185 0.655195 4.2039 0.956723C3.47595 1.25825 2.81451 1.70021 2.25736 2.25736C1.70021 2.81451 1.25825 3.47595 0.956723 4.2039C0.655195 4.93185 0.5 5.71207 0.5 6.5M0.5 6.5V10C0.5 10.2652 0.605357 10.5196 0.792893 10.7071C0.98043 10.8946 1.23478 11 1.5 11H2.5C2.76522 11 3.01957 10.8946 3.20711 10.7071C3.39464 10.5196 3.5 10.2652 3.5 10V7.5C3.5 7.23478 3.39464 6.98043 3.20711 6.79289C3.01957 6.60536 2.76522 6.5 2.5 6.5H0.5Z" stroke="currentColor" fill="none" stroke-linecap="round" stroke-linejoin="round"/>
    </svg>

    <svg id="icon-upload" viewBox="0 0 32 32">
        <path fill-rule="evenodd" clip-rule="evenodd" d="M15.2929 3.29289C15.6834 2.90237 16.3166 2.90237 16.7071 3.29289L22.7071 9.29289C23.0976 9.68342 23.0976 10.3166 22.7071 10.7071C22.3166 11.0976 21.6834 11.0976 21.2929 10.7071L17 6.41421L17 22C17 22.5523 16.5523 23 16 23C15.4477 23 15 22.5523 15 22L15 6.41421L10.7071 10.7071C10.3166 11.0976 9.68342 11.0976 9.29289 10.7071C8.90237 10.3166 8.90237 9.68342 9.2929 9.29289L15.2929 3.29289ZM4 21C4.55228 21 5 21.4477 5 22V25C5 26.1046 5.89543 27 7 27H25C26.1046 27 27 26.1046 27 25V22C27 21.4477 27.4477 21 28 21C28.5523 21 29 21.4477 29 22V25C29 27.2091 27.2091 29 25 29H7C4.79086 29 3 27.2091 3 25V22C3 21.4477 3.44772 21 4 21Z" fill="currentColor"/>
    </svg>

    <svg id="icon-info" viewBox="0 0 35 35">
        <path fill-rule="evenodd" clip-rule="evenodd" d="M17.0625 2.625C9.08889 2.625 2.625 9.08889 2.625 17.0625C2.625 25.0361 9.08889 31.5 17.0625 31.5C25.0361 31.5 31.5 25.0361 31.5 17.0625C31.5 9.08889 25.0361 2.625 17.0625 2.625ZM0 17.0625C0 7.63914 7.63914 0 17.0625 0C26.4859 0 34.125 7.63914 34.125 17.0625C34.125 26.4859 26.4859 34.125 17.0625 34.125C7.63914 34.125 0 26.4859 0 17.0625ZM15.75 10.5C15.75 9.77513 16.3376 9.1875 17.0625 9.1875H17.0756C17.8005 9.1875 18.3881 9.77513 18.3881 10.5V10.5131C18.3881 11.238 17.8005 11.8256 17.0756 11.8256H17.0625C16.3376 11.8256 15.75 11.238 15.75 10.5131V10.5ZM15.2356 14.5398C17.2416 13.5368 19.5001 15.3486 18.9562 17.5243L17.7154 22.4874L17.788 22.4511C18.4364 22.1269 19.2247 22.3897 19.5489 23.038C19.8731 23.6864 19.6103 24.4747 18.962 24.7989L18.8894 24.8352C16.8835 25.8382 14.6249 24.0264 15.1688 21.8507L16.4096 16.8876L16.337 16.9239C15.6886 17.2481 14.9002 16.9853 14.5761 16.337C14.2519 15.6886 14.5147 14.9002 15.163 14.5761L15.2356 14.5398Z" fill="currentColor"/>
    </svg>

    <svg id="icon-file-upload" viewBox="0 0 17 21">
        <path fill-rule="evenodd" clip-rule="evenodd" d="M1.875 1.5C1.66789 1.5 1.5 1.66789 1.5 1.875V19.125C1.5 19.3321 1.66789 19.5 1.875 19.5H14.625C14.8321 19.5 15 19.3321 15 19.125V10.125C15 8.67525 13.8247 7.5 12.375 7.5H10.875C9.83947 7.5 9 6.66053 9 5.625V4.125C9 2.67525 7.82475 1.5 6.375 1.5H1.875ZM1.875 0C0.839466 0 0 0.839465 0 1.875V19.125C0 20.1605 0.839466 21 1.875 21H14.625C15.6605 21 16.5 20.1605 16.5 19.125V9.75C16.5 4.36522 12.1348 0 6.75 0H1.875ZM10.007 2.16785C10.3215 2.75019 10.5 3.41675 10.5 4.125V5.625C10.5 5.83211 10.6679 6 10.875 6H12.375C13.0832 6 13.7498 6.1785 14.3322 6.49296C13.4988 4.55549 11.9445 3.00123 10.007 2.16785ZM8.25 9C8.44891 9 8.63968 9.07902 8.78033 9.21967L11.7803 12.2197C12.0732 12.5126 12.0732 12.9874 11.7803 13.2803C11.4874 13.5732 11.0126 13.5732 10.7197 13.2803L9 11.5607L9 15.75C9 16.1642 8.66421 16.5 8.25 16.5C7.83579 16.5 7.5 16.1642 7.5 15.75L7.5 11.5607L5.78033 13.2803C5.48744 13.5732 5.01256 13.5732 4.71967 13.2803C4.42678 12.9874 4.42678 12.5126 4.71967 12.2197L7.71967 9.21967C7.86032 9.07902 8.05109 9 8.25 9Z" fill="currentColor"/>
    </svg>

    <svg id="icon-truck" viewBox="0 0 14 11">
        <path fill-rule="evenodd" clip-rule="evenodd" d="M4.5 1C3.38866 1 2.29093 1.05753 1.2096 1.16975C1.09451 1.18169 1 1.28118 1 1.40986V6.0003H8V1.40986C8 1.28118 7.90549 1.18169 7.7904 1.16975C6.70907 1.05753 5.61134 1 4.5 1ZM8 7.0003H1V8.75C1 8.88807 1.11193 9 1.25 9H2.08535C2.29127 8.4174 2.84689 8 3.5 8C4.15311 8 4.70873 8.4174 4.91465 9H8V7.0003ZM9 9H9.58535C9.79127 8.4174 10.3469 8 11 8C11.6531 8 12.2087 8.4174 12.4146 8.99999L12.75 8.99998C12.8968 8.99998 12.9844 8.88647 12.9779 8.78114C12.8437 6.60418 12.1041 4.59164 10.9249 2.90881C10.779 2.70053 10.5381 2.56718 10.2666 2.54877H9V9ZM9 1.54877V1.40986C9 0.781889 8.53116 0.241251 7.89363 0.17509C6.77806 0.059321 5.64587 0 4.5 0C3.35413 0 2.22194 0.059321 1.10637 0.17509C0.468845 0.241251 0 0.781889 0 1.40986V8.75C0 9.44036 0.559644 10 1.25 10H2.08535C2.29127 10.5826 2.84689 11 3.5 11C4.15311 11 4.70873 10.5826 4.91465 10H9.58535C9.79127 10.5826 10.3469 11 11 11C11.6531 11 12.2087 10.5826 12.4147 9.99999L12.75 9.99998C13.4316 9.99998 14.0205 9.44114 13.976 8.71961C13.8301 6.35311 13.0256 4.1642 11.7439 2.33497C11.4091 1.85715 10.8731 1.58047 10.3092 1.54952C10.3 1.54902 10.2909 1.54877 10.2818 1.54877H9ZM3.5 9C3.22386 9 3 9.22386 3 9.5C3 9.77614 3.22386 10 3.5 10C3.77614 10 4 9.77614 4 9.5C4 9.22386 3.77614 9 3.5 9ZM11 9C10.7239 9 10.5 9.22386 10.5 9.5C10.5 9.77614 10.7239 10 11 10C11.2761 10 11.5 9.77614 11.5 9.5C11.5 9.22386 11.2761 9 11 9Z" fill="currentColor"/>
    </svg>

    <svg id="icon-alert" viewBox="0 0 17 17" fill="none">
        <path fill-rule="evenodd" clip-rule="evenodd" d="M0 8.125C0 3.63769 3.63769 0 8.125 0C12.6123 0 16.25 3.63769 16.25 8.125C16.25 12.6123 12.6123 16.25 8.125 16.25C3.63769 16.25 0 12.6123 0 8.125ZM8.125 5C8.47018 5 8.75 5.27982 8.75 5.625V8.75C8.75 9.09518 8.47018 9.375 8.125 9.375C7.77982 9.375 7.5 9.09518 7.5 8.75V5.625C7.5 5.27982 7.77982 5 8.125 5ZM8.125 11.875C8.47018 11.875 8.75 11.5952 8.75 11.25C8.75 10.9048 8.47018 10.625 8.125 10.625C7.77982 10.625 7.5 10.9048 7.5 11.25C7.5 11.5952 7.77982 11.875 8.125 11.875Z" fill="currentColor" />
    </svg>

    <svg id="icon-tag" viewBox="0 0 14 14" fill="none">
        <path fill-rule="evenodd" clip-rule="evenodd" d="M2 0C0.895431 0 0 0.895431 0 2V4.87868C0 5.40911 0.210713 5.91782 0.585786 6.29289L6.9732 12.6803C7.58608 13.2932 8.56595 13.4709 9.33823 12.9653C10.7828 12.0195 12.0195 10.7828 12.9653 9.33823C13.4709 8.56595 13.2932 7.58608 12.6803 6.97319L6.29289 0.585786C5.91782 0.210713 5.40911 0 4.87868 0H2ZM2.75 3.5C3.16421 3.5 3.5 3.16421 3.5 2.75C3.5 2.33579 3.16421 2 2.75 2C2.33579 2 2 2.33579 2 2.75C2 3.16421 2.33579 3.5 2.75 3.5Z" fill="currentColor" />
    </svg>

    <svg id="icon-star" viewBox="0 0 20 20" fill="none">
        <path fill-rule="evenodd" clip-rule="evenodd" d="M8.98848 2.67567C9.3621 1.77738 10.6346 1.77738 11.0082 2.67567L12.7432 6.8471L17.2466 7.20813C18.2164 7.28588 18.6097 8.49612 17.8708 9.12904L14.4397 12.0682L15.4879 16.4627C15.7137 17.4091 14.6842 18.157 13.8539 17.6499L9.99836 15.295L6.14282 17.6499C5.31255 18.157 4.28306 17.4091 4.5088 16.4627L5.55706 12.0682L2.12594 9.12904C1.38707 8.49612 1.7803 7.28588 2.75008 7.20813L7.25349 6.8471L8.98848 2.67567ZM9.99836 3.50257L8.37099 7.41526C8.21348 7.79395 7.85734 8.0527 7.44851 8.08547L3.22444 8.42412L6.44274 11.1809C6.75423 11.4478 6.89026 11.8664 6.79509 12.2654L5.81185 16.3873L9.42824 14.1785C9.77826 13.9647 10.2185 13.9647 10.5685 14.1785L14.1849 16.3873L13.2016 12.2654C13.1065 11.8664 13.2425 11.4478 13.554 11.1809L16.7723 8.42412L12.5482 8.08547C12.1394 8.0527 11.7832 7.79395 11.6257 7.41526L9.99836 3.50257Z" fill="currentColor" />
    </svg>

    <svg id="icon-filter" viewBox="0 0 20 20" fill="none">
        <path fill-rule="evenodd" clip-rule="evenodd" d="M7.5 4.375C7.15482 4.375 6.875 4.65482 6.875 5C6.875 5.34518 7.15482 5.625 7.5 5.625C7.84518 5.625 8.125 5.34518 8.125 5C8.125 4.65482 7.84518 4.375 7.5 4.375ZM5.73169 4.375C5.98909 3.64675 6.68361 3.125 7.5 3.125C8.31639 3.125 9.01091 3.64676 9.26831 4.375L16.875 4.375C17.2202 4.375 17.5 4.65482 17.5 5C17.5 5.34518 17.2202 5.625 16.875 5.625H9.26831C9.01091 6.35325 8.31639 6.875 7.5 6.875C6.68361 6.875 5.98909 6.35324 5.73169 5.625H3.125C2.77982 5.625 2.5 5.34518 2.5 5C2.5 4.65482 2.77982 4.375 3.125 4.375H5.73169ZM12.5 9.375C12.1548 9.375 11.875 9.65482 11.875 10C11.875 10.3452 12.1548 10.625 12.5 10.625C12.8452 10.625 13.125 10.3452 13.125 10C13.125 9.65482 12.8452 9.375 12.5 9.375ZM10.7317 9.375C10.9891 8.64675 11.6836 8.125 12.5 8.125C13.3164 8.125 14.0109 8.64675 14.2683 9.375L16.875 9.375C17.2202 9.375 17.5 9.65482 17.5 10C17.5 10.3452 17.2202 10.625 16.875 10.625L14.2683 10.625C14.0109 11.3532 13.3164 11.875 12.5 11.875C11.6836 11.875 10.9891 11.3532 10.7317 10.625H3.125C2.77982 10.625 2.5 10.3452 2.5 10C2.5 9.65482 2.77982 9.375 3.125 9.375H10.7317ZM7.5 14.375C7.15482 14.375 6.875 14.6548 6.875 15C6.875 15.3452 7.15482 15.625 7.5 15.625C7.84518 15.625 8.125 15.3452 8.125 15C8.125 14.6548 7.84518 14.375 7.5 14.375ZM5.73169 14.375C5.98909 13.6468 6.68361 13.125 7.5 13.125C8.31639 13.125 9.01091 13.6468 9.26831 14.375H16.875C17.2202 14.375 17.5 14.6548 17.5 15C17.5 15.3452 17.2202 15.625 16.875 15.625H9.26831C9.01091 16.3532 8.31639 16.875 7.5 16.875C6.68361 16.875 5.98909 16.3532 5.73169 15.625L3.125 15.625C2.77982 15.625 2.5 15.3452 2.5 15C2.5 14.6548 2.77982 14.375 3.125 14.375L5.73169 14.375Z" fill="currentColor" />
    </svg>

    <svg id="icon-calendar" viewBox="0 0 15 15" fill="none">
        <path d="M11.4375 0C11.8517 0 12.1875 0.335786 12.1875 0.75V1.6875H12.5625C13.9087 1.6875 15 2.77881 15 4.125V12.5625C15 13.9087 13.9087 15 12.5625 15H2.4375C1.09131 15 0 13.9087 0 12.5625V4.125C0 2.77881 1.09131 1.6875 2.4375 1.6875H2.8125V0.75C2.8125 0.335786 3.14829 0 3.5625 0C3.97671 0 4.3125 0.335786 4.3125 0.75V1.6875H10.6875V0.75C10.6875 0.335786 11.0233 0 11.4375 0ZM2.4375 6C1.91973 6 1.5 6.41973 1.5 6.9375V12.5625C1.5 13.0803 1.91973 13.5 2.4375 13.5H12.5625C13.0803 13.5 13.5 13.0803 13.5 12.5625V6.9375C13.5 6.41973 13.0803 6 12.5625 6H2.4375ZM2.4375 3.1875C1.91973 3.1875 1.5 3.60723 1.5 4.125V4.68652C1.78857 4.5662 2.10533 4.5 2.4375 4.5H12.5625C12.8947 4.5 13.2114 4.5662 13.5 4.68652V4.125C13.5 3.60723 13.0803 3.1875 12.5625 3.1875H2.4375Z" fill="currentColor" />
    </svg>

    <svg id="icon-ruble" viewBox="0 0 18 18" fill="none">
        <path d="M3.9375 12.375H10.125" stroke="currentColor" stroke-linecap="round" stroke-linejoin="round" />
        <path d="M6.1875 15.1875V2.8125H10.4062C11.3759 2.8125 12.3059 3.19771 12.9916 3.88339C13.6773 4.56907 14.0625 5.49905 14.0625 6.46875C14.0625 7.43845 13.6773 8.36843 12.9916 9.05411C12.3059 9.73979 11.3759 10.125 10.4062 10.125H3.9375" stroke="currentColor" stroke-linecap="round" stroke-linejoin="round" />
    </svg>

    <svg id="icon-plus" viewBox="0 0 14 14">
        <path fill-rule="evenodd" clip-rule="evenodd" d="M6.875 0C7.22018 0 7.5 0.279822 7.5 0.625V6.25L13.125 6.25C13.4702 6.25 13.75 6.52982 13.75 6.875C13.75 7.22018 13.4702 7.5 13.125 7.5H7.5V13.125C7.5 13.4702 7.22018 13.75 6.875 13.75C6.52982 13.75 6.25 13.4702 6.25 13.125V7.5H0.625C0.279822 7.5 0 7.22018 0 6.875C0 6.52982 0.279822 6.25 0.625 6.25L6.25 6.25V0.625C6.25 0.279822 6.52982 0 6.875 0Z" fill="currentColor"/>
    </svg>

    <svg id="icon-breadcrumbs" viewBox="0 0 22 22" fill="none" >
        <path fill-rule="evenodd" clip-rule="evenodd" d="M2.75 5.5C2.75 3.98122 3.98122 2.75 5.5 2.75H7.5625C9.08128 2.75 10.3125 3.98122 10.3125 5.5V7.5625C10.3125 9.08128 9.08128 10.3125 7.5625 10.3125H5.5C3.98122 10.3125 2.75 9.08128 2.75 7.5625V5.5ZM5.5 4.125C4.74061 4.125 4.125 4.74061 4.125 5.5V7.5625C4.125 8.32189 4.74061 8.9375 5.5 8.9375H7.5625C8.32189 8.9375 8.9375 8.32189 8.9375 7.5625V5.5C8.9375 4.74061 8.32189 4.125 7.5625 4.125H5.5ZM11.6875 5.5C11.6875 3.98122 12.9187 2.75 14.4375 2.75H16.5C18.0188 2.75 19.25 3.98122 19.25 5.5V7.5625C19.25 9.08128 18.0188 10.3125 16.5 10.3125H14.4375C12.9187 10.3125 11.6875 9.08128 11.6875 7.5625V5.5ZM14.4375 4.125C13.6781 4.125 13.0625 4.74061 13.0625 5.5V7.5625C13.0625 8.32189 13.6781 8.9375 14.4375 8.9375H16.5C17.2594 8.9375 17.875 8.32189 17.875 7.5625V5.5C17.875 4.74061 17.2594 4.125 16.5 4.125H14.4375ZM2.75 14.4375C2.75 12.9187 3.98122 11.6875 5.5 11.6875H7.5625C9.08128 11.6875 10.3125 12.9187 10.3125 14.4375V16.5C10.3125 18.0188 9.08128 19.25 7.5625 19.25H5.5C3.98122 19.25 2.75 18.0188 2.75 16.5V14.4375ZM5.5 13.0625C4.74061 13.0625 4.125 13.6781 4.125 14.4375V16.5C4.125 17.2594 4.74061 17.875 5.5 17.875H7.5625C8.32189 17.875 8.9375 17.2594 8.9375 16.5V14.4375C8.9375 13.6781 8.32189 13.0625 7.5625 13.0625H5.5ZM11.6875 14.4375C11.6875 12.9187 12.9187 11.6875 14.4375 11.6875H16.5C18.0188 11.6875 19.25 12.9187 19.25 14.4375V16.5C19.25 18.0188 18.0188 19.25 16.5 19.25H14.4375C12.9187 19.25 11.6875 18.0188 11.6875 16.5V14.4375ZM14.4375 13.0625C13.6781 13.0625 13.0625 13.6781 13.0625 14.4375V16.5C13.0625 17.2594 13.6781 17.875 14.4375 17.875H16.5C17.2594 17.875 17.875 17.2594 17.875 16.5V14.4375C17.875 13.6781 17.2594 13.0625 16.5 13.0625H14.4375Z" fill="currentColor" />
    </svg>

    <svg id="icon-breadcrumbs-arrow" viewBox="0 0 14 14" fill="none">
        <path d="M5.83301 3.5L9.33301 7L5.83301 10.5" stroke="currentColor" stroke-width="0.7" stroke-linecap="round" stroke-linejoin="round" />
    </svg>

    <svg id="icon-clock" viewBox="0 0 15 15" fill="none">
        <path d="M7.5 0C11.6421 0 15 3.35786 15 7.5C15 11.6421 11.6421 15 7.5 15C3.35786 15 0 11.6421 0 7.5C0 3.35786 3.35786 0 7.5 0ZM7.5 1.5C4.18629 1.5 1.5 4.18629 1.5 7.5C1.5 10.8137 4.18629 13.5 7.5 13.5C10.8137 13.5 13.5 10.8137 13.5 7.5C13.5 4.18629 10.8137 1.5 7.5 1.5ZM7.5 2.25C7.91421 2.25 8.25 2.58579 8.25 3V6.75H10.875C11.2892 6.75 11.625 7.08579 11.625 7.5C11.625 7.91421 11.2892 8.25 10.875 8.25H7.5C7.08579 8.25 6.75 7.91421 6.75 7.5V3C6.75 2.58579 7.08579 2.25 7.5 2.25Z" fill="currentColor" />
    </svg>

    <svg id="icon-question" viewBox="0 0 15 15" fill="none">
        <path d="M7.5 0C6.01664 0 4.56659 0.439867 3.33323 1.26398C2.09986 2.08809 1.13856 3.25943 0.570907 4.62987C0.00324965 6.00032 -0.145275 7.50832 0.144114 8.96318C0.433503 10.418 1.14781 11.7544 2.1967 12.8033C3.2456 13.8522 4.58197 14.5665 6.03682 14.8559C7.49168 15.1453 8.99968 14.9967 10.3701 14.4291C11.7406 13.8614 12.9119 12.9001 13.736 11.6668C14.5601 10.4334 15 8.98336 15 7.5C14.9979 5.51152 14.207 3.60509 12.801 2.19902C11.3949 0.79295 9.48848 0.00209987 7.5 0ZM7.5 12.1154C7.32884 12.1154 7.16153 12.0646 7.01922 11.9695C6.87691 11.8744 6.76599 11.7393 6.70049 11.5812C6.63499 11.423 6.61785 11.249 6.65125 11.0812C6.68464 10.9133 6.76706 10.7591 6.88808 10.6381C7.00911 10.5171 7.16331 10.4346 7.33117 10.4012C7.49904 10.3678 7.67304 10.385 7.83117 10.4505C7.9893 10.516 8.12445 10.6269 8.21954 10.7692C8.31463 10.9115 8.36539 11.0788 8.36539 11.25C8.36539 11.4795 8.27421 11.6996 8.11192 11.8619C7.94963 12.0242 7.72952 12.1154 7.5 12.1154ZM8.07692 8.60192V8.65384C8.07692 8.80685 8.01614 8.9536 7.90795 9.06179C7.79975 9.16998 7.65301 9.23077 7.5 9.23077C7.34699 9.23077 7.20025 9.16998 7.09206 9.06179C6.98386 8.9536 6.92308 8.80685 6.92308 8.65384V8.07692C6.92308 7.92391 6.98386 7.77717 7.09206 7.66897C7.20025 7.56078 7.34699 7.5 7.5 7.5C8.45409 7.5 9.23077 6.85096 9.23077 6.05769C9.23077 5.26442 8.45409 4.61538 7.5 4.61538C6.54592 4.61538 5.76923 5.26442 5.76923 6.05769V6.34615C5.76923 6.49916 5.70845 6.6459 5.60026 6.7541C5.49206 6.86229 5.34532 6.92308 5.19231 6.92308C5.0393 6.92308 4.89256 6.86229 4.78436 6.7541C4.67617 6.6459 4.61539 6.49916 4.61539 6.34615V6.05769C4.61539 4.6262 5.90914 3.46154 7.5 3.46154C9.09087 3.46154 10.3846 4.6262 10.3846 6.05769C10.3846 7.31106 9.39231 8.36033 8.07692 8.60192Z" fill="currentColor" />
    </svg>

    <svg id="icon-percent" viewBox="0 0 20 20" fill="none">
        <path d="M15.625 4.375L4.375 15.625" stroke="currentColor" stroke-linecap="round" stroke-linejoin="round" />
        <path d="M5.9375 8.125C7.14562 8.125 8.125 7.14562 8.125 5.9375C8.125 4.72938 7.14562 3.75 5.9375 3.75C4.72938 3.75 3.75 4.72938 3.75 5.9375C3.75 7.14562 4.72938 8.125 5.9375 8.125Z" stroke="currentColor" stroke-linecap="round" stroke-linejoin="round" />
        <path d="M14.0625 16.25C15.2706 16.25 16.25 15.2706 16.25 14.0625C16.25 12.8544 15.2706 11.875 14.0625 11.875C12.8544 11.875 11.875 12.8544 11.875 14.0625C11.875 15.2706 12.8544 16.25 14.0625 16.25Z" stroke="currentColor" stroke-linecap="round" stroke-linejoin="round" />
    </svg>

    <svg id="icon-use-template" viewBox="0 0 15 18" fill="none">
        <path fill-rule="evenodd" clip-rule="evenodd" d="M5.3125 1.25C5.13991 1.25 5 1.38991 5 1.5625V12.1875C5 12.3601 5.13991 12.5 5.3125 12.5H13.4375C13.6101 12.5 13.75 12.3601 13.75 12.1875V8.4375C13.75 7.22938 12.7706 6.25 11.5625 6.25H10.3125C9.44955 6.25 8.75 5.55044 8.75 4.6875V3.4375C8.75 2.22938 7.77062 1.25 6.5625 1.25H5.3125ZM9.58908 1.8063C9.85121 2.29164 10 2.84719 10 3.4375V4.6875C10 4.86009 10.1399 5 10.3125 5H11.5625C12.1527 5 12.7081 5.14874 13.1934 5.41076C12.4989 3.79615 11.2036 2.50073 9.58908 1.8063ZM15 12.1875C15 13.0504 14.3004 13.75 13.4375 13.75H11.25V15.9375C11.25 16.8004 10.5504 17.5 9.6875 17.5H1.5625C0.699555 17.5 0 16.8004 0 15.9375V5.3125C0 4.44955 0.699555 3.75 1.5625 3.75H3.125C3.3352 3.75 3.54363 3.758 3.75 3.77371V1.5625C3.75 0.699555 4.44955 0 5.3125 0H6.875C7.33568 0 7.78787 0.0384031 8.22841 0.112312C12.0716 0.757081 15 4.09845 15 8.125V12.1875ZM3.75 5.02799C3.54427 5.00947 3.33581 5 3.125 5H1.5625C1.38991 5 1.25 5.13991 1.25 5.3125V15.9375C1.25 16.1101 1.38991 16.25 1.5625 16.25H9.6875C9.86009 16.25 10 16.1101 10 15.9375V13.75H5.3125C4.44955 13.75 3.75 13.0504 3.75 12.1875V5.02799Z" fill="currentColor" />
    </svg>

    <svg id="icon-position-copy" viewBox="0 0 20 20" fill="none">
        <path fill-rule="evenodd" clip-rule="evenodd" d="M2.5 5C2.5 3.61929 3.61929 2.5 5 2.5H11.875C13.2557 2.5 14.375 3.61929 14.375 5V6.25H15C16.3807 6.25 17.5 7.36929 17.5 8.75V15C17.5 16.3807 16.3807 17.5 15 17.5H8.75C7.36929 17.5 6.25 16.3807 6.25 15V14.375H5C3.61929 14.375 2.5 13.2557 2.5 11.875V5ZM6.25 13.125V8.75C6.25 7.36929 7.36929 6.25 8.75 6.25H13.125V5C13.125 4.30964 12.5654 3.75 11.875 3.75H5C4.30964 3.75 3.75 4.30964 3.75 5V11.875C3.75 12.5654 4.30964 13.125 5 13.125H6.25ZM8.75 7.5C8.05964 7.5 7.5 8.05964 7.5 8.75V15C7.5 15.6904 8.05964 16.25 8.75 16.25H15C15.6904 16.25 16.25 15.6904 16.25 15V8.75C16.25 8.05964 15.6904 7.5 15 7.5H8.75Z" fill="currentColor" />
    </svg>

    <svg id="icon-approved-supplier" viewBox="0 0 15 15" fill="none">
        <path d="M7.5 0C11.6421 0 15 3.35786 15 7.5C15 11.6421 11.6421 15 7.5 15C3.35786 15 0 11.6421 0 7.5C0 3.35786 3.35786 0 7.5 0ZM7.5 1.5C4.18629 1.5 1.5 4.18629 1.5 7.5C1.5 10.8137 4.18629 13.5 7.5 13.5C10.8137 13.5 13.5 10.8137 13.5 7.5C13.5 4.18629 10.8137 1.5 7.5 1.5ZM9.13965 5.37695C9.38034 5.03999 9.84851 4.96163 10.1855 5.20215C10.5225 5.44284 10.6009 5.91101 10.3604 6.24805L7.54785 10.1855C7.41971 10.3649 7.21874 10.4789 6.99902 10.4971C6.77941 10.5152 6.56305 10.4361 6.40723 10.2803L4.71973 8.59277C4.42683 8.29988 4.42683 7.82512 4.71973 7.53223C5.01262 7.23933 5.48738 7.23933 5.78027 7.53223L6.8418 8.59375L9.13965 5.37695Z" fill="currentColor" />
    </svg>
</svg>